<?xml version="1.0" encoding="UTF-8" standalone="no"?>
<!-- Created with Inkscape (http://www.inkscape.org/) -->

<svg
   xmlnsDc="http://purl.org/dc/elements/1.1/"
   xmlnsCc="http://creativecommons.org/ns#"
   xmlnsRdf="http://www.w3.org/1999/02/22-rdf-syntax-ns#"
   xmlnsSvg="http://www.w3.org/2000/svg"
   xmlns="http://www.w3.org/2000/svg"
   xmlnsSodipodi="http://sodipodi.sourceforge.net/DTD/sodipodi-0.dtd"
   xmlnsInkscape="http://www.inkscape.org/namespaces/inkscape"
   id="svg3356"
   version="1.1"
   inkscapeVersion="0.91 r13725"
   width="253.125"
   height="660"
   viewBox="0 0 253.125 660"
   sodipodiDocname="16thCenturyCostume13.svg">
  <metadata
     id="metadata3362">
    <rdfRDF>
      <ccWork
         rdf:about="">
        <dcformat>image/svg+xml</dcformat>
        <dctype
           rdf:resource="http://purl.org/dc/dcmitype/StillImage" />
        <dctitle></dctitle>
      </ccWork>
    </rdfRDF>
  </metadata>
  <defs
     id="defs3360" />
  <sodipodiNamedview
     pagecolor="#ffffff"
     bordercolor="#666666"
     borderopacity="1"
     objecttolerance="10"
     gridtolerance="10"
     guidetolerance="10"
     inkscapePageopacity="0"
     inkscapePageshadow="2"
     inkscapeWindow-width="1600"
     inkscapeWindow-height="837"
     id="namedview3358"
     showgrid="false"
     inkscapeZoom="1.0151515"
     inkscapeCx="126.5625"
     inkscapeCy="330"
     inkscapeWindow-x="-8"
     inkscapeWindow-y="-8"
     inkscapeWindow-maximized="1"
     inkscapeCurrent-layer="svg3356" />
  <path
     style="fill:#000000"
     d="m 218.90625,658.27534 c -2.57813,-0.9149 -5.98893,-2.48316 -7.57956,-3.48503 -5.30021,-3.33833 -15.04577,-13.0152 -17.69116,-17.56643 -1.86349,-3.20604 -3.85694,-5.12588 -6.95221,-6.69554 -2.38676,-1.21038 -5.14323,-3.09003 -6.1255,-4.17701 -0.98225,-1.08698 -2.78877,-1.97633 -4.01449,-1.97633 -3.64337,0 -8.66624,2.55937 -9.56379,4.87316 -3.34047,8.6114 -4.2066,9.97676 -7.45661,11.75448 -1.88605,1.03166 -4.69481,2.1338 -6.24168,2.44919 -11.37833,2.31993 -15.56145,3.50771 -18.35833,5.21279 -3.34009,2.03623 -9.70215,2.64418 -10.70417,1.02288 -0.31868,-0.51563 -1.55119,-0.9375 -2.73892,-0.9375 -3.14629,0 -8.71357,-4.82439 -12.14697,-10.5261 -2.11075,-3.50527 -3.32939,-7.14934 -4.14478,-12.39413 -2.16595,-13.93198 -5.270924,-20.01017 -4.69416,-9.18915 l 0.28733,5.39063 -3.515625,0.29097 C 95.332031,622.48225 93.75,623.0096 93.75,623.4941 c 0,0.48449 0.421875,0.8809 0.9375,0.8809 0.515625,0 0.9375,0.44392 0.9375,0.98649 0,0.60088 -1.920499,0.87573 -4.913094,0.70313 -3.797178,-0.21901 -4.983937,-0.65601 -5.224992,-1.924 -0.243283,-1.2797 0.334122,-1.64062 2.624673,-1.64062 3.731549,0 2.893312,-1.52903 -1.149773,-2.09731 -1.68056,-0.23621 -3.793845,-0.74983 -4.696189,-1.14139 -1.322888,-0.57403 -1.640625,-0.24275 -1.640625,1.71054 0,4.1604 -3.309303,5.49933 -10.895022,4.40806 -3.546801,-0.51024 -10.245603,-1.39734 -14.886228,-1.97134 -6.66629,-0.82455 -9.307645,-1.61986 -12.582605,-3.7886 -2.279807,-1.50973 -4.682567,-2.74496 -5.339469,-2.74496 -0.656901,0 -1.749713,-1.16016 -2.428473,-2.57813 -1.139085,-2.37961 -1.806167,-2.63485 -8.6638,-3.31485 -7.293598,-0.72324 -11.334879,-2.13635 -18.7850743,-6.5686 -5.2187874,-3.10475 -5.7922167,-5.7921 -3.8896945,-18.22893 0.8489974,-5.5499 1.5412094,-12.45357 1.5382487,-15.34147 -0.00296,-2.8879 0.3739209,-6.47383 0.8375144,-7.96875 0.4635936,-1.49491 1.3547166,-8.2024 1.9802733,-14.90552 0.6255568,-6.70313 1.7497715,-16.19531 2.4982544,-21.09375 0.748484,-4.89844 1.765672,-12.28125 2.260417,-16.40625 0.494746,-4.125 1.602106,-11.29687 2.4608,-15.9375 0.858696,-4.64063 1.642988,-10.75781 1.742872,-13.59375 0.220088,-6.24878 1.988191,-22.75293 3.264142,-30.46875 0.511607,-3.09375 1.318181,-12.375 1.792385,-20.625 0.835406,-14.53402 1.177339,-17.55901 4.229621,-37.41832 0.785585,-5.11132 1.428338,-13.25337 1.428338,-18.09343 0,-6.08926 0.444622,-9.65992 1.443357,-11.59126 1.137484,-2.19965 1.237929,-3.53083 0.473979,-6.28156 -0.533159,-1.91974 -0.977492,-5.81074 -0.987409,-8.64668 -0.02787,-7.97205 -0.63292,-9.19511 -5.607415,-11.33508 -2.445543,-1.05204 -4.967147,-2.88575 -5.603564,-4.07491 -0.64748,-1.20982 -2.699314,-2.62415 -4.658619,-3.21117 C 10.021817,328.5244 8.3527778,327.2785 7.6659381,325.77106 7.0717219,324.46689 5.5604989,323.01013 4.3076648,322.53381 0.88412608,321.23218 -0.20387004,314.36591 0.49813261,298.49213 1.0339726,286.37564 1.3412933,284.71799 4.9114149,274.6875 8.348829,265.02985 8.715091,263.17346 8.4257773,256.875 7.6497749,239.98116 7.8636845,237.69427 10.708878,232.46672 c 2.147291,-3.94528 2.73156,-6.29725 2.90869,-11.70887 0.12191,-3.72455 0.754162,-8.38542 1.405005,-10.3575 1.544949,-4.68124 6.304201,-12.71496 8.403579,-14.18542 0.909157,-0.6368 2.580071,-3.13005 3.71314,-5.54055 1.13307,-2.4105 2.661832,-4.98443 3.397251,-5.71985 0.735419,-0.73542 2.365784,-3.10026 3.623034,-5.25521 2.048935,-3.5119 3.437463,-6.77536 10.043592,-23.60557 3.46033,-8.81576 6.474894,-19.68478 7.410547,-26.71875 0.51441,-3.86719 1.172221,-7.66406 1.461802,-8.4375 0.289582,-0.77344 0.844689,-4.80275 1.233574,-8.95403 0.602548,-6.43211 1.216236,-8.34375 4.151769,-12.932723 4.109682,-6.424463 16.713917,-19.373378 21.030434,-21.605535 3.484827,-1.802074 12.466033,-4.615631 19.414955,-6.082155 8.93647,-1.885981 13.87053,-4.350701 16.25646,-8.120615 1.9624,-3.100729 2.02044,-3.436194 0.48603,-2.809166 -3.41173,1.394186 -14.42493,1.74454 -16.692418,0.531021 -2.610666,-1.397186 -4.268822,-4.706109 -4.268822,-8.518626 0,-3.454451 3.130322,-10.253234 6.29115,-13.663825 2.94218,-3.174673 2.26349,-4.607763 -3.697603,-7.807667 -2.363822,-1.26889 -5.008344,-3.509848 -5.876731,-4.979908 -1.531376,-2.592415 -1.503385,-2.781782 0.930279,-6.293561 1.780805,-2.569697 2.418446,-4.525853 2.196661,-6.738842 -0.3102,-3.0950621 -0.277847,-3.1223527 4.374994,-3.6907834 2.57813,-0.314966 7.85156,-1.0350249 11.71875,-1.6001309 3.86719,-0.565106 11.45462,-1.4771183 16.86097,-2.0266941 7.80901,-0.7938169 10.55117,-1.4766687 13.33927,-3.3217441 C 143.24713,0.7197849 145.63481,0 148.52954,0 c 3.88237,0 8.80141,1.4550205 9.90796,2.930709 0.73802,0.9842196 -0.0514,17.694291 -0.83595,17.694291 -0.38659,0 -1.20929,-3.257332 -1.82823,-7.238513 -1.69256,-10.8869416 -2.87564,-10.4737482 -2.67024,0.932583 l 0.17817,9.89416 3.14418,0.372743 c 1.72929,0.20501 3.30945,-0.075 3.51144,-0.622239 0.202,-0.547242 0.47462,-5.213734 0.60582,-10.369984 l 0.23856,-9.375 4.6875,-0.3035685 c 2.57812,-0.1669627 6.26953,0.1663782 8.20312,0.7407577 2.9002,0.8615114 3.51563,1.4735618 3.51563,3.496327 0,2.5012918 -2.98073,7.0642558 -7.12494,10.9069758 -3.50386,3.248967 -3.889,7.983741 -1.05247,12.939023 3.18068,5.556519 4.72453,10.752777 4.024,13.543909 -0.31992,1.274678 -1.98826,3.888993 -3.70741,5.809586 -1.71915,1.920595 -3.40573,5.024298 -3.74795,6.897118 -0.60276,3.298535 -0.50319,3.452763 3.18084,4.926816 2.09169,0.836928 4.04505,2.152276 4.34081,2.922997 0.29575,0.770719 1.68858,1.401309 3.09518,1.401309 3.10133,0 18.69614,7.873496 24.75484,12.498209 2.41069,1.840123 5.545,4.03204 6.96512,4.870928 2.57903,1.523473 6.77198,7.037141 6.77198,8.90506 0,0.543403 0.83958,2.633719 1.86574,4.645144 1.02615,2.011429 2.50086,7.795409 3.27714,12.853279 1.81067,11.79751 3.60838,16.84074 7.45531,20.91488 6.5121,6.89673 11.63592,20.58156 10.32414,27.57395 -0.82119,4.37733 -4.27776,7.52565 -7.40168,6.7416 -2.97665,-0.7471 -2.98574,-0.0783 -0.088,6.47401 2.32112,5.24847 3.59631,10.22637 5.28136,20.61669 1.90917,11.77226 2.85682,14.95069 8.0012,26.83602 5.22335,12.06784 5.28568,12.31844 4.71195,18.94678 -0.31978,3.69447 -1.38827,8.99246 -2.37443,11.77332 l -1.79301,5.05613 2.3114,6.19387 c 5.89288,15.79125 6.34642,18.65283 5.68269,35.85514 -0.27043,7.00869 -0.71474,9.40234 -1.98015,10.66776 -0.95276,0.95275 -1.37678,2.26374 -1.01923,3.15124 1.22923,3.05115 2.42195,23.2901 1.81786,30.84711 -0.6921,8.65811 -3.76356,15.81575 -9.34032,21.76638 -1.6913,1.80469 -3.55581,4.7929 -4.14336,6.64047 -0.58756,1.84757 -2.37449,4.69523 -3.97095,6.32813 -2.50171,2.55881 -3.55694,2.9689 -7.63947,2.9689 -3.18437,0 -5.34064,-0.53769 -6.57924,-1.64063 -1.81265,-1.61411 -1.8307,-1.56486 -1.117,3.04688 0.39898,2.57812 0.64284,15.02344 0.54192,27.65625 -0.10092,12.63281 0.27672,31.19531 0.83922,41.25 1.2394,22.15461 1.87838,78.01608 0.98029,85.70042 -0.35638,3.04929 -0.30768,7.26804 0.10823,9.375 0.4159,2.10695 1.42518,11.81204 2.24283,21.56686 0.81765,9.75481 2.15103,20.09074 2.96306,22.96875 0.81204,2.87799 1.41422,6.92022 1.33819,8.98272 -0.076,2.0625 0.44605,5.98999 1.16019,8.72775 1.11846,4.28776 1.11225,5.16393 -0.0447,6.32093 -1.73423,1.73423 -0.98753,2.85792 2.34153,3.52373 2.16961,0.43392 2.88878,1.28656 3.85817,4.57421 0.65532,2.22249 2.36406,6.15025 3.79719,8.72838 1.43313,2.57812 2.86967,5.81514 3.19231,7.19337 0.32264,1.37823 1.64143,3.75944 2.93064,5.29158 2.70095,3.2099 2.88537,4.84255 0.96625,8.55371 -1.43947,2.78365 -4.01075,4.04105 -12.68473,6.20308 -6.66408,1.66106 -7.96326,1.62544 -13.59375,-0.37265 z m 16.76051,-9.06917 c 1.86765,-0.78036 3.3896,-1.72958 3.3821,-2.10938 -0.0354,-1.79537 -3.16166,-9.41101 -5.81313,-14.16121 -1.62075,-2.90363 -3.40168,-6.12308 -3.95764,-7.15433 -0.55595,-1.03125 -2.73204,-4.40625 -4.83574,-7.5 -2.10372,-3.09375 -5.19713,-8.15625 -6.87426,-11.25 -1.67713,-3.09375 -3.69861,-6.35118 -4.49217,-7.23874 -0.79357,-0.88755 -1.76972,-3.20786 -2.16924,-5.15625 -2.21502,-10.8024 -2.79935,-14.99782 -3.68123,-26.43042 -0.53351,-6.91647 -1.24043,-12.82272 -1.57095,-13.125 -0.33051,-0.30228 -0.34802,7.99338 -0.0389,18.43479 0.45301,15.30203 0.32407,18.98437 -0.66477,18.98437 -0.67473,0 -1.68457,-0.94922 -2.2441,-2.10937 -0.68876,-1.42815 -1.0378,-1.63319 -1.08076,-0.63489 -0.0349,0.81097 1.21756,4.11897 2.78323,7.35113 1.56568,3.23216 3.4541,8.20865 4.19649,11.05888 1.51537,5.81788 2.02512,6.63648 7.57641,12.16689 2.45584,2.44661 4.53292,5.70783 5.51119,8.65314 1.50934,4.54425 1.28858,8.51422 -0.47347,8.51422 -1.17197,0 -2.78231,-3.23425 -2.78231,-5.58803 0,-1.07873 -1.8708,-3.83211 -4.15733,-6.11864 -2.28652,-2.28652 -4.86621,-5.75589 -5.73264,-7.7097 -4.49578,-10.13804 -4.12731,-9.76031 -4.15118,-4.2555 -0.0117,2.70703 -0.39157,4.92187 -0.84406,4.92187 -2.10028,0 -3.27357,-3.62708 -4.01688,-12.41776 -0.82734,-9.78434 -1.99162,-12.88075 -3.70288,-9.84787 -0.50914,0.90235 -1.95942,1.64063 -3.22286,1.64063 -1.9341,0 -2.29717,-0.45042 -2.29717,-2.84985 0,-1.56742 -0.84375,-4.50373 -1.875,-6.52515 -2.04893,-4.01624 -2.43711,-9.38545 -0.88783,-12.28031 2.50095,-4.67306 2.50761,-139.59469 0.007,-139.59469 -1.3774,0 -1.93112,2.7562 -1.94592,9.68605 -0.0143,6.65801 -1.22862,11.11017 -2.20946,8.10017 -0.24733,-0.75898 -0.70723,-14.87997 -1.02202,-31.37997 -0.31478,-16.5 -0.74804,-32.53125 -0.96279,-35.625 -1.45977,-21.03011 -1.37101,-26.71875 0.41689,-26.71875 1.78436,0 3.97409,35.72378 3.96512,64.6875 -0.002,5.39332 0.80022,9.46334 1.74898,8.87697 1.14025,-0.70471 1.13175,-8.38175 -0.0237,-21.48358 C 186.37335,399.97613 185.7407,360 186.68455,360 c 0.38764,0 0.89779,0.31641 1.13367,0.70312 0.70702,1.1591 2.51013,24.21236 2.91474,37.26563 0.70945,22.88836 1.59591,37.49854 2.38902,39.375 0.43588,1.03125 1.06581,4.19531 1.39985,7.03125 0.33404,2.83594 1.02728,7.89844 1.54054,11.25 0.51327,3.35156 1.13768,8.625 1.38758,11.71875 0.5453,6.75067 1.07907,8.58772 2.15667,7.42239 0.43734,-0.47294 0.40135,-3.60208 -0.08,-6.95364 -4.50095,-31.34072 -6.92721,-62.78469 -4.89722,-63.46723 0.66639,-0.22405 1.24296,2.25419 1.617,6.95014 0.31973,4.01408 1.03314,10.4624 1.58534,14.32959 2.39902,16.8006 4.42198,36.21229 5.42235,52.03125 l 0.65215,10.3125 0.71156,-6.15566 c 0.40884,-3.53686 0.30913,-8.27768 -0.23437,-11.14359 -0.52027,-2.74336 -0.94678,-7.56706 -0.9478,-10.71933 -0.002,-5.4267 -1.69004,-23.52245 -3.80059,-40.73664 -0.92666,-7.558 -0.57234,-11.89782 0.89723,-10.98958 1.09972,0.67966 2.72926,9.37837 3.78662,20.21355 0.52834,5.41406 1.18737,12.16406 1.46451,15 2.96777,30.36847 4.30674,55.43909 5.13213,96.09375 0.77714,38.2772 1.21178,43.82564 4.17107,53.2468 1.70307,5.42189 7.04366,15.65945 8.16901,15.65945 1.2908,0 0.99848,-1.42027 -2.49573,-12.12593 -1.81643,-5.56526 -3.92523,-13.65659 -4.68621,-17.98073 -1.63042,-9.26451 -1.76301,-27.46738 -0.27237,-37.39334 1.54225,-10.26953 1.025,-60.71619 -1.09222,-106.52522 -0.57498,-12.44044 -0.98789,-25.09669 -0.91758,-28.125 C 214.06822,394.36927 212.51093,345 211.85827,345 c -1.39473,0 -2.7857,5.32914 -3.18107,12.1875 -0.48356,8.38798 -0.25168,7.5 -1.95845,7.5 -1.0625,0 -1.40625,-1.14583 -1.40625,-4.6875 0,-2.57813 -0.14612,-4.6875 -0.32471,-4.6875 -0.1786,0 -1.65516,0.66371 -3.28125,1.47491 -2.55322,1.27372 -2.95654,1.96957 -2.95654,5.10092 0,3.80686 -1.54399,5.78916 -2.85583,3.66655 -0.42416,-0.6863 -0.5352,-2.42785 -0.24675,-3.8701 0.30926,-1.5463 0.11844,-2.62228 -0.46503,-2.62228 -0.54422,0 -1.1243,0.91617 -1.28906,2.03594 -0.46003,3.12638 -2.31627,3.0636 -3.42462,-0.11582 -1.21182,-3.4762 -5.14071,-5.58364 -7.57518,-4.06329 -2.76174,1.72473 -4.17787,9.4e-4 -3.49706,-4.2565 0.43426,-2.71575 0.21762,-4.16481 -0.77039,-5.15282 -0.756,-0.756 -2.06759,-3.1066 -2.91461,-5.22354 -0.84703,-2.11693 -1.81066,-3.85835 -2.14139,-3.86982 -0.33073,-0.0114 -1.58599,-0.77828 -2.78945,-1.70405 -1.85611,-1.42781 -2.25349,-2.74045 -2.61896,-8.65103 -0.23697,-3.8323 -0.63198,-7.81157 -0.87781,-8.84282 -0.24583,-1.03125 -1.0386,-16.03945 -1.76172,-33.35155 -1.14473,-27.40574 -1.13717,-33.71052 0.0584,-48.75 0.75527,-9.5004 1.56887,-20.22658 1.80803,-23.83595 0.69761,-10.52861 3.02486,-19.28209 4.42824,-16.65592 0.21115,0.39513 0.0226,3.67154 -0.41903,7.28092 -2.22936,18.22078 -2.77401,27.882 -3.22422,57.19175 -0.49375,32.14374 0.003,38.91322 2.65883,36.25707 0.80592,-0.80591 0.81207,-3.60343 0.0246,-11.16829 -1.52053,-14.60631 -0.55139,-64.92429 1.34098,-69.62428 0.31141,-0.77344 0.88241,-4.78125 1.26889,-8.90625 0.38648,-4.125 1.14748,-9.17566 1.6911,-11.22368 0.54363,-2.04802 0.8051,-3.90701 0.58104,-4.13107 -0.22406,-0.22406 -2.05837,0.33711 -4.07623,1.24703 -4.07173,1.8361 -4.19708,2.18581 -5.72878,15.98272 -0.45794,4.125 -1.56291,12.5625 -2.4555,18.75 -1.33343,9.24355 -1.62674,18.35617 -1.64456,51.09375 -0.0119,21.91406 0.29868,42.51622 0.69024,45.78256 0.64117,5.34876 0.55007,5.90764 -0.91684,5.625 -0.89581,-0.17259 -1.97995,-1.57944 -2.40921,-3.12631 -1.09129,-3.93261 -1.71579,-77.75285 -0.74948,-88.59375 0.43662,-4.89844 1.23529,-11.85938 1.7748,-15.46875 0.53951,-3.60938 1.2462,-8.67188 1.57041,-11.25 0.32422,-2.57813 1.18383,-6.5117 1.91025,-8.74127 1.61233,-4.94866 1.08615,-6.04196 -2.25292,-4.68123 -1.39972,0.57042 -5.94182,1.15139 -10.09357,1.29106 -5.97248,0.20094 -8.9087,0.84678 -14.0625,3.09319 -16.72708,7.29089 -18.98485,7.91842 -26.10956,7.25695 -3.65987,-0.33978 -8.25686,-1.049 -10.21554,-1.57604 C 96.402553,207.75742 84.79842,200.26779 82.846757,197.28918 82.021824,196.03013 80.81422,195 80.16322,195 c -0.651,0 -1.708824,-0.63281 -2.35072,-1.40625 -3.10875,-3.74582 -5.238896,0.95471 -2.457828,5.42361 1.348371,2.1667 0.907706,20.80825 -1.179316,49.88889 -1.223228,17.04452 -1.356399,61.23229 -0.217949,72.31807 0.522145,5.08443 1.227399,17.04912 1.567231,26.58818 0.339832,9.53906 0.796309,17.64191 1.014393,18.00634 0.376208,0.62865 2.545003,40.78734 2.470415,45.74366 -0.0194,1.28906 0.312829,7.61719 0.738286,14.0625 0.425459,6.44531 1.006664,16.0601 1.291568,21.36619 0.284904,5.30609 0.924217,12.47796 1.420693,15.9375 0.496477,3.45953 1.334444,13.92698 1.86215,23.26099 0.527705,9.33402 1.425184,19.24808 1.994396,22.03125 4.065713,19.87936 9.459324,37.31623 14.034821,45.37282 5.042,8.878 4.85535,8.68807 8.58822,8.73959 1.95823,0.027 3.56042,-0.28026 3.56042,-0.68284 0,-1.33998 -3.63511,-11.32044 -5.07227,-13.92629 -3.49062,-6.32919 -9.062155,-22.95737 -11.854789,-35.38046 -0.927272,-4.125 -2.12342,-8.97656 -2.6581,-10.78125 -3.144617,-10.61393 -3.583337,-12.72649 -2.813304,-13.54688 1.46222,-1.55783 2.453179,0.55664 5.030751,10.73438 4.288574,16.9338 11.241712,37.16203 16.910282,49.19583 4.62276,9.81366 5.23291,12.147 4.0578,15.51791 -0.84959,2.43714 -1.42202,2.78626 -4.56839,2.78626 l -3.59712,0 0.0291,5.85937 c 0.0159,3.22266 -0.0378,13.45313 -0.11945,22.73438 -0.14429,16.39672 1.31279,30.82498 3.50933,34.74998 0.49002,0.87563 4.63799,3.05712 9.2177,4.84775 l 8.32674,3.2557 5.16028,-1.55988 c 2.83814,-0.85795 7.79698,-2.86387 11.01963,-4.45761 l 5.85938,-2.89772 0,-6.40483 c 0,-3.52267 -0.40908,-9.26032 -0.90907,-12.75036 -2.22004,-15.49644 -2.96618,-21.74503 -3.27656,-27.43928 -0.18269,-3.35156 -0.57105,-6.72656 -0.86303,-7.5 -0.5254,-1.3917 -1.00605,-5.55136 -2.11242,-18.28125 -0.31369,-3.60937 -1.16545,-7.2444 -1.8928,-8.07784 -0.72735,-0.83343 -1.7485,-4.16088 -2.26924,-7.39434 -0.52073,-3.23346 -1.48121,-7.19218 -2.13439,-8.79717 -2.79635,-6.87109 -5.10232,-22.60168 -5.74606,-39.1978 -0.28496,-7.34619 -0.10704,-12.12388 0.46465,-12.47719 1.16238,-0.7184 0.9705,-1.79635 1.92034,10.78809 1.40846,18.66051 3.84864,35.21756 5.4223,36.79122 0.83559,0.8356 0.97207,-0.34031 0.57537,-4.95726 -0.28604,-3.32899 -0.73682,-7.31833 -1.00173,-8.86521 -0.8238,-4.81027 -3.58314,-49.78073 -5.04411,-82.2064 -0.54161,-12.02085 -1.18241,-24.80922 -1.42398,-28.4186 -1.3303,-19.87616 -2.47019,-33.44378 -3.22931,-38.4375 -0.47031,-3.09375 -1.32177,-10.6875 -1.89216,-16.875 -2.25691,-24.48293 -2.9888,-31.30139 -4.32711,-40.3125 -0.7658,-5.15625 -1.78987,-14.85937 -2.27572,-21.5625 -0.48585,-6.70312 -1.37684,-15.5625 -1.97997,-19.6875 -1.56894,-10.7303 -1.55649,-14.0625 0.0525,-14.0625 2.20941,0 3.0756,4.80343 5.66336,31.40625 0.42634,4.38281 1.24733,11.55469 1.82442,15.9375 1.22605,9.31135 2.53836,21.64109 3.84162,36.09375 0.51147,5.67188 1.32851,13.89844 1.81565,18.28125 1.91425,17.22231 2.92449,27.07395 3.79746,37.03192 0.5008,5.71269 1.55418,13.95581 2.34085,18.31802 2.35403,13.05357 4.34325,27.07139 5.18315,36.52506 0.43518,4.89844 1.25258,12.28125 1.81642,16.40625 0.56385,4.125 1.67006,12.5625 2.45823,18.75 2.75689,21.64255 5.388,28.43566 3.17611,8.20019 -1.25397,-11.4719 -2.54634,-24.3416 -3.27118,-32.57519 -0.44786,-5.08723 -1.92609,-16.59592 -4.27479,-33.28125 -0.47179,-3.35156 -1.25719,-9.46875 -1.74535,-13.59375 -0.84202,-7.11526 -1.77913,-14.19858 -3.84489,-29.0625 -1.24326,-8.94572 -3.81035,-35.94337 -5.66056,-59.53125 -0.6269,-7.99219 -2.51801,-23.59571 -4.20245,-34.67449 -1.68445,-11.07878 -2.86346,-20.4655 -2.62004,-20.85937 0.24345,-0.39388 0.98315,-0.71614 1.6438,-0.71614 1.30982,0 2.67541,5.44903 4.34655,17.34375 0.57955,4.125 1.4263,9.39844 1.88168,11.71875 0.91859,4.68046 1.71193,12.87484 5.17358,53.4375 1.29812,15.21094 2.73781,30.82031 3.19932,34.6875 0.90141,7.55341 4.33126,34.72126 5.74028,45.46875 0.47319,3.60937 1.27275,10.78125 1.77678,15.9375 1.20483,12.32531 2.44013,22.03957 3.75531,29.53125 0.58838,3.35156 1.46413,9.04687 1.94609,12.65625 0.48198,3.60937 1.23816,8.67187 1.6804,11.25 0.44224,2.57812 1.49943,8.90625 2.3493,14.0625 2.92285,17.73315 8.29758,41.22401 11.94575,52.21037 1.48809,4.48133 2.70562,9.0187 2.70562,10.08305 0,1.06435 1.6875,5.98982 3.75,10.94551 2.0625,4.95569 3.75,9.63444 3.75,10.39723 0,0.76279 0.78503,2.50671 1.74452,3.87537 0.95948,1.36865 2.19839,4.59784 2.75313,7.17597 2.27709,10.58268 2.03363,11.8298 -1.90015,9.73361 -2.00301,-1.06733 -2.04857,-1.02836 -0.7714,0.65978 3.9981,5.2846 7.50077,8.02245 13.74865,10.74658 3.80889,1.66071 6.92525,3.33045 6.92525,3.71055 0,0.3801 1.6875,0.96094 3.75,1.29074 2.42648,0.388 3.75,1.09206 3.75,1.99482 0,1.57244 -2.02957,1.8188 -4.46585,0.54208 C 203.44022,633.18331 195,630.10086 195,630.58234 c 0,1.57595 2.28103,4.11809 5.80334,6.46761 2.22222,1.48232 5.0951,3.6301 6.38416,4.77282 2.99639,2.65626 18.30694,8.71378 22.15114,8.76395 1.61281,0.0211 4.46046,-0.6002 6.32812,-1.38055 z M 101.45865,551.01562 c -0.57513,-1.16015 -1.948191,-4.42968 -3.051244,-7.26562 -1.103053,-2.83594 -2.391281,-5.8888 -2.862731,-6.78415 -1.163691,-2.21004 -1.087275,-7.27835 0.109744,-7.27835 0.531815,0 1.124643,0.52734 1.317412,1.17187 2.844806,9.51193 3.718749,12.07586 5.269149,15.45854 1.93066,4.21228 2.32802,6.80709 1.04244,6.80709 -0.42849,0 -1.24964,-0.94922 -1.82477,-2.10938 z m 74.37938,-1.875 c -0.19421,-0.64453 -1.25831,-8.13281 -2.36466,-16.64062 -1.10635,-8.50781 -2.35662,-17.78906 -2.77838,-20.625 l -0.76682,-5.15625 -0.12033,4.92187 c -0.0662,2.70704 -0.5087,4.92188 -0.98335,4.92188 -1.32162,0 -2.63115,-7.52009 -3.34671,-19.21875 -0.51953,-8.49379 -1.83131,-23.15067 -3.18839,-35.625 -0.50487,-4.64063 -1.19977,-13.07813 -1.54422,-18.75 -0.34447,-5.67188 -0.78965,-10.58211 -0.98929,-10.91163 -0.53166,-0.87753 -3.11714,-55.57226 -3.26491,-69.06755 -0.0695,-6.34791 0.13612,-11.80416 0.45695,-12.12499 1.70342,-1.70342 2.37541,3.25348 3.25619,24.01898 0.5331,12.56877 1.248,23.11565 1.58866,23.4375 0.71536,0.67585 -0.21434,-51.98167 -1.01349,-57.40405 -0.51581,-3.49984 0.79077,-6.72177 2.33807,-5.76549 0.885,0.54696 1.65493,15.61379 2.97049,58.12973 1.2453,40.24547 1.94464,51.2933 3.09039,48.8198 0.50045,-1.0804 0.38738,-8.6087 -0.28161,-18.75 -1.27517,-19.33051 -1.48575,-69.91355 -0.29106,-69.91355 1.73507,0 4.37517,57.67021 5.34342,116.72108 0.56599,34.51787 1.99995,60.76064 3.77516,69.08899 1.74729,8.1973 1.72207,11.06493 -0.0973,11.06493 -0.78963,0 -1.59458,-0.52734 -1.7888,-1.17188 z m -7.02236,-78.04687 c -0.57903,-7.21875 -1.4424,-15.86719 -1.91861,-19.21875 -2.39051,-16.82446 -2.84646,-21.94938 -2.84076,-31.93019 0.005,-8.01373 -0.34798,-11.31047 -1.35348,-12.65625 -1.20134,-1.60786 -1.30389,-0.12736 -0.88057,12.71144 0.26352,7.99219 0.68872,15.375 0.94489,16.40625 0.25617,1.03125 0.86424,6.09375 1.35126,11.25 0.48703,5.15625 1.3044,13.17187 1.81639,17.8125 0.51199,4.64062 1.16345,13.07812 1.4477,18.75 0.28425,5.67187 0.81369,11.78906 1.17654,13.59375 1.20195,5.97816 1.38134,-12.69722 0.25664,-26.71875 z m -50.78329,55.6821 c -1.49594,-1.6014 -2.71988,-3.25549 -2.71988,-3.67574 0,-0.42025 -2.1445,-4.22176 -4.76557,-8.44779 -3.5576,-5.73602 -4.49532,-7.95299 -3.69938,-8.74612 0.79506,-0.79228 1.52481,-0.46645 2.86973,1.2813 0.99194,1.28906 1.8129,2.84717 1.82437,3.46247 0.0114,0.61529 0.86331,1.70879 1.89298,2.43001 1.02968,0.72121 2.33657,2.64357 2.90422,4.2719 0.56763,1.62834 1.45781,2.96062 1.97816,2.96062 0.52611,0 0.6547,-0.72831 0.28968,-1.64063 -2.14077,-5.3506 -3.38188,-13.05936 -3.49158,-21.68697 -0.12379,-9.73499 -0.166,-9.90888 -4.22291,-17.39347 -2.25384,-4.15811 -5.49433,-10.51331 -7.20111,-14.12268 -1.70677,-3.60938 -4.040099,-8.53387 -5.185162,-10.94331 -2.773819,-5.83669 -2.359894,-9.57983 1.103447,-9.97833 2.868045,-0.33001 3.403555,-2.38988 1.244175,-4.78579 -1.866375,-2.07081 -9.757042,-17.19991 -11.401246,-21.86008 -1.755591,-4.97587 -0.209997,-7.02271 1.87097,-2.47774 0.798342,1.74364 1.849794,3.80306 2.33656,4.5765 2.265091,3.59907 10.118816,18.00467 13.033346,23.90625 1.78252,3.60937 4.0292,7.56862 4.99263,8.79831 2.02516,2.58484 2.31304,5.73294 0.52425,5.73294 -0.6751,0 -3.23066,-2.32031 -5.67903,-5.15625 -2.44837,-2.83594 -4.84915,-5.15625 -5.33506,-5.15625 -1.657573,0 -0.88727,3.62753 1.8292,8.61413 2.74781,5.04413 11.09601,20.94517 14.21415,27.07407 2.76439,5.43357 3.13279,8.13551 1.45778,10.69189 -2.78021,4.24314 -2.09459,8.62097 3.59239,22.93829 3.04702,7.67108 3.20778,12.24412 0.43039,12.24412 -1.08218,0 -3.19156,-1.31024 -4.6875,-2.91165 z m 2.90512,-3.12677 c 0,-0.22738 -0.42187,-0.67416 -0.9375,-0.99283 -0.51562,-0.31867 -0.9375,-0.13264 -0.9375,0.41342 0,0.54605 0.42188,0.99283 0.9375,0.99283 0.51563,0 0.9375,-0.18604 0.9375,-0.41342 z m 61.55044,-12.47827 c -0.66832,-1.08136 0.47252,-9.60831 1.28552,-9.60831 0.82969,0 1.74189,7.39834 1.12701,9.14062 -0.45991,1.30318 -1.7425,1.55182 -2.41253,0.46769 z M 99.463097,496.17187 c -1.003753,-1.93359 -3.141872,-4.93484 -4.751381,-6.66944 -2.624804,-2.82881 -4.915657,-8.56493 -3.420602,-8.56493 2.195877,0 12.739646,14.52211 12.762596,17.57812 0.0186,2.47596 -2.84852,1.01215 -4.590613,-2.34375 z m 83.729013,-31.66199 c -0.33707,-1.34299 -0.19671,-3.36415 0.3119,-4.49146 0.81154,-1.79875 0.97312,-1.55331 1.31995,2.00478 0.44239,4.53854 -0.68549,6.25725 -1.63185,2.48668 z m -61.71445,-7.18484 c -0.21126,-0.67721 -0.60346,-4.26434 -0.87158,-7.9714 -0.49792,-6.88463 -2.20587,-17.03685 -5.25369,-31.22864 -5.41864,-25.23112 -8.08049,-46.07855 -9.45381,-74.04145 -0.56921,-11.58999 -1.32065,-22.76968 -1.66987,-24.84375 -1.05122,-6.24326 -0.33758,-10.8023 1.69089,-10.8023 2.42923,0 2.66281,1.74016 3.77534,28.125 0.94613,22.4382 1.80105,33.11134 3.7172,46.40625 0.5202,3.60937 1.38672,10.57031 1.92561,15.46875 1.07697,9.78974 1.56894,12.66375 4.65398,27.1875 2.72775,12.84168 3.58256,18.87327 3.67916,25.96029 0.072,5.28456 -1.25328,8.75294 -2.19323,5.73975 z m -20.99729,-30.52817 c -1.908432,-2.68157 -7.137676,-12.79962 -7.862978,-15.21404 -0.228982,-0.76224 -1.431372,-1.39505 -2.671976,-1.40625 -2.792419,-0.0251 -3.620333,-2.90151 -1.068305,-3.71149 0.987934,-0.31356 2.474688,-0.30976 3.303897,0.008 1.767133,0.67812 6.256492,8.34643 6.256492,10.68676 0,0.88639 0.84375,2.3752 1.875,3.30847 1.59905,1.44712 1.875,1.48154 1.875,0.2339 0,-0.80463 -0.90366,-3.29579 -2.00812,-5.53593 -3.021455,-6.12827 -2.60993,-4.85968 -9.380567,-28.91672 -1.399683,-4.97327 -2.539684,-10.0551 -3.997196,-17.81847 -0.726651,-3.87048 -1.72878,-8.08923 -2.226954,-9.375 -2.550441,-6.58264 -3.800356,-15.93153 -2.129991,-15.93153 1.163109,0 2.010517,1.45119 2.938635,5.03245 0.418535,1.61497 1.206635,4.51833 1.751333,6.45192 2.163855,7.68135 2.960538,10.86411 4.634695,18.51563 0.958962,4.38281 3.544284,14.71875 5.745168,22.96875 2.200875,8.25 4.201307,16.16532 4.445377,17.5896 0.24409,1.42428 0.81704,2.82027 1.27321,3.10221 0.45617,0.28192 0.82941,1.72843 0.82941,3.21444 0,1.48601 0.42188,2.96258 0.9375,3.28125 0.51563,0.31867 0.9375,1.82014 0.9375,3.33658 0,3.64046 -2.92539,3.73644 -5.45713,0.17904 z m 99.81346,-63.76176 c -0.243,-0.39319 0.12347,-1.76428 0.81438,-3.04688 1.10273,-2.04707 1.334,-2.13154 1.89304,-0.69136 1.09881,2.83069 -1.25754,6.08418 -2.70742,3.73824 z M 173.6461,351.97809 c -2.48131,-1.73797 -2.94239,-6.35202 -0.58709,-5.87495 1.42392,0.28841 4.5837,7.33436 3.28912,7.33436 -0.34014,0 -1.55606,-0.65674 -2.70203,-1.45941 z m -41.5987,293.53952 c 2.75887,-0.73432 5.712,-1.92142 6.5625,-2.63799 0.85049,-0.71656 4.49947,-1.83371 8.10885,-2.48255 12.75525,-2.29293 14.82199,-3.54805 15.96251,-9.69394 0.82497,-4.44555 0.0456,-4.47097 -7.18311,-0.23438 -3.07923,1.80469 -6.03823,3.28125 -6.57553,3.28125 -0.53731,0 -2.09674,0.76963 -3.4654,1.71028 -3.48192,2.39307 -13.35996,5.78972 -16.83749,5.78972 -2.72615,0 -5.23457,-0.75478 -10.25894,-3.0869 -3.04831,-1.4149 -3.54748,-0.24734 -1.2648,2.95839 1.12921,1.58583 3.70463,3.39965 5.96165,4.19871 2.18549,0.77372 3.97361,1.43507 3.97361,1.46966 0,0.0346 2.25727,-0.53792 5.01615,-1.27225 z m 35.29635,-22.64299 c 4.125,-0.83706 8.07894,-1.69222 8.78653,-1.90035 0.86511,-0.25446 -0.10009,-1.86082 -2.94659,-4.90396 -2.32822,-2.48906 -4.88293,-5.78217 -5.67716,-7.31803 -1.45671,-2.81695 -5.94631,-15.95623 -8.11601,-23.75228 -1.87967,-6.75398 -2.17448,-7.29739 -2.60514,-4.80195 -0.44142,2.55787 2.78165,16.81163 5.5675,24.62175 2.55719,7.16904 2.00639,10.05436 -0.99297,5.2016 -1.21437,-1.96481 -2.55358,-4.91793 -2.976,-6.5625 -0.42242,-1.64458 -1.9024,-7.63078 -3.28885,-13.30265 -4.74564,-19.41406 -5.24525,-13.97389 -1.50306,16.36683 1.04667,8.48613 1.88232,15.658 1.85699,15.9375 -0.21584,2.38266 0.36565,3.0196 2.28538,2.50328 1.16016,-0.31202 5.48438,-1.25218 9.60938,-2.08924 z M 77.8125,621.9416 c 0,-0.30713 -0.872477,-1.78369 -1.938838,-3.28125 -2.179335,-3.06059 -3.874778,-3.34633 -7.7777,-1.31083 -1.476908,0.77026 -3.691752,1.40048 -4.921875,1.40048 -1.331848,0 -2.236587,0.55152 -2.236587,1.36342 0,1.02584 1.566827,1.44462 6.328125,1.69138 3.480469,0.18038 7.277344,0.41059 8.4375,0.51158 1.160156,0.10099 2.109375,-0.0677 2.109375,-0.37478 z m -20.258375,-3.96386 c 0.262506,-0.42474 -1.60016,-1.30469 -4.139258,-1.95544 -2.539098,-0.65075 -5.643175,-1.99074 -6.89795,-2.97775 C 44.019024,611.07971 41.25,610.66704 41.25,612.25961 c 0,0.55529 1.233173,2.24279 2.740385,3.75 2.366666,2.36667 3.445854,2.74039 7.913421,2.74039 2.84517,0 5.387815,-0.34751 5.650319,-0.77226 z m 39.41885,-3.81221 c -0.128822,-2.52146 -0.695756,-5.44685 -1.25985,-6.50087 -0.564094,-1.05402 -1.025625,-2.57694 -1.025625,-3.38428 0,-1.87003 3.152259,-1.91148 4.6875,-0.0616 2.82056,3.39857 3.28419,1.54078 2.98271,-11.9518 -0.29283,-13.10537 -0.3481,-13.41445 -2.891838,-16.1732 -1.426313,-1.54688 -3.996019,-5.55469 -5.710453,-8.90625 -1.714442,-3.35157 -3.893584,-7.55405 -4.842541,-9.33885 -0.948958,-1.78484 -1.725378,-3.9748 -1.725378,-4.86658 0,-2.13896 -1.650293,-3.08568 -3.174201,-1.82096 -2.058807,1.70866 -2.448396,0.13812 -2.516691,-10.14553 -0.03624,-5.45703 -0.428465,-10.76562 -0.871608,-11.79687 -0.480312,-1.11774 -0.88364,8.72655 -0.998661,24.375 -0.241345,32.8347 -0.293911,34.01132 -1.576793,35.2942 -0.777953,0.77796 -0.686849,1.60984 0.349525,3.19154 1.101012,1.68036 1.21797,3.15042 0.545157,6.85216 -0.737435,4.05729 -0.579225,5.20729 1.137399,8.26758 1.777203,3.16829 2.624087,3.70032 7.78976,4.89371 5.759793,1.33064 8.167257,3.38492 5.269872,4.49675 -0.833048,0.31968 -2.296774,0.0928 -3.252725,-0.50423 C 88.932583,615.48846 87.14155,615 85.908462,615 c -1.233089,0 -3.747494,-0.62904 -5.587567,-1.39788 -2.000701,-0.83594 -3.566504,-1.04043 -3.895145,-0.50868 -0.787619,1.2744 4.48989,3.76977 8.137069,3.84746 1.701387,0.0362 3.937181,0.42845 4.968431,0.8716 1.03125,0.44315 3.180212,0.83537 4.775475,0.8716 2.886647,0.0656 2.89935,0.0441 2.66625,-4.51857 z m -14.775628,-8.27466 c -0.996153,-1.60775 -0.855952,-44.09976 0.151445,-45.89988 1.583735,-2.82998 2.184062,0.5773 2.638029,14.97265 0.449342,14.24871 -1.275381,33.37091 -2.789474,30.92723 z m -17.342759,7.82782 c 1.777753,-0.42173 3.526307,-2.26728 5.98885,-6.32107 l 3.478014,-5.72542 -1.048315,-10.91423 c -0.576573,-6.00282 -1.257242,-16.18766 -1.512598,-22.63297 -0.255356,-6.44531 -0.909725,-23.10938 -1.454153,-37.03125 -0.544428,-13.92188 -1.36533,-30.58594 -1.824227,-37.03125 -0.458897,-6.44531 -0.607355,-18.54908 -0.329907,-26.89727 0.277448,-8.34818 0.0031,-22.27006 -0.609614,-30.9375 -0.612735,-8.66744 -1.10889,-20.39961 -1.102566,-26.07148 0.0063,-5.67188 -0.368211,-12 -0.832297,-14.0625 -0.52033,-2.31247 -0.592747,5.05492 -0.188909,19.21875 0.676821,23.7381 0.882657,97.38525 0.318358,113.90625 -0.781053,22.86692 -3.042271,48.94673 -4.755159,54.84375 -0.973517,3.35156 -2.261575,8.41406 -2.862352,11.25 -1.748856,8.25539 -1.840726,8.4375 -4.25654,8.4375 -1.959738,0 -2.152468,-0.28063 -1.448649,-2.10938 0.446504,-1.16015 1.335565,-4.42968 1.975691,-7.26562 0.640125,-2.83594 1.46951,-5.57813 1.843078,-6.09375 1.252734,-1.72912 2.856422,-14.80249 5.232566,-42.65625 2.581003,-30.25517 3.059343,-67.88727 1.340607,-105.46875 -0.986345,-21.5672 -2.544639,-61.764 -3.579854,-92.34375 -0.392747,-11.60156 -0.392089,-25.73438 0.0015,-31.40625 1.522154,-21.93733 1.96344,-37.96875 1.045139,-37.96875 -0.526409,0 -1.178428,5.50723 -1.526164,12.89062 -0.961357,20.41226 -1.624841,25.72243 -3.141208,25.14055 -1.926127,-0.73913 -2.746406,2.35254 -0.969001,3.65222 2.397033,1.75275 2.928332,13.31417 1.626436,35.39227 -1.631651,27.67025 -2.213017,33.59786 -3.294527,33.59096 -0.515624,-0.004 -1.182986,-2.43977 -1.483023,-5.41442 -0.300039,-2.97464 -0.632101,-4.98658 -0.737917,-4.47095 -0.178058,0.86766 -1.955146,31.49175 -2.448101,42.1875 -0.118823,2.57812 -0.726891,11.4375 -1.351262,19.6875 -0.62437,8.25 -1.31365,20.48437 -1.531732,27.1875 -0.429834,13.21166 -1.652576,38.13922 -3.288003,67.03125 -1.36235,24.06773 -1.506466,38.16767 -0.539611,52.79409 l 0.794089,12.01285 4.120905,2.00209 c 2.26646,1.10115 4.120868,2.27219 4.120868,2.6023 0,0.33011 -1.078477,1.09159 -2.396614,1.69218 -2.4175,1.10148 -2.367484,2.95899 0.07968,2.95899 1.911724,0 8.086462,-3.62975 10.074854,-5.92238 4.562653,-5.26079 6.193928,-10.08224 7.923312,-23.4184 0.272995,-2.10521 0.898439,-3.40841 1.530804,-3.18966 1.966344,0.68021 0.692984,15.22678 -1.81184,20.69803 -2.574115,5.62261 -8.181205,11.42923 -11.9254,12.34978 -3.332024,0.81921 -2.820437,2.44986 1.086194,3.46217 1.66496,0.43143 3.270421,1.41825 3.56769,2.19291 0.466494,1.21567 0.749239,1.22767 2.065281,0.0877 0.838636,-0.72644 2.654669,-1.58885 4.03563,-1.91645 z m 114.207912,-4.859 c 0,-1.24957 -3.00293,-6.16925 -3.47657,-5.69563 -0.71884,0.71885 1.62694,6.21094 2.65281,6.21094 0.45306,0 0.82376,-0.23189 0.82376,-0.51531 z m -144.375,-2.71061 c 0,-1.25863 -0.421875,-2.54916 -0.9375,-2.86783 -0.515625,-0.31867 -0.9375,0.0783 -0.9375,0.88217 0,1.16042 -1.152252,1.46158 -5.592015,1.46158 -4.632526,0 -5.764193,-0.32171 -6.595485,-1.875 -0.910236,-1.70079 -0.712959,-1.875 2.123265,-1.875 2.959866,0 5.376735,-1.34852 5.376735,-3 0,-0.4125 -0.934152,-0.75 -2.075893,-0.75 -1.859328,0 -1.926912,-0.14898 -0.647834,-1.42806 0.785432,-0.78543 2.857257,-2.19454 4.604056,-3.13136 3.773791,-2.02391 4.487961,-3.46502 2.035039,-4.10647 -1.20377,-0.3148 -1.996894,-1.65307 -2.432071,-4.10375 -1.050757,-5.91728 -1.488807,-6.8569 -2.93754,-6.30097 -1.094634,0.42005 -1.358257,-0.59 -1.358257,-5.20409 0,-3.19187 0.414842,-5.7253 0.9375,-5.7253 0.515625,0 0.9375,1.98281 0.9375,4.40625 0,5.53366 1.475967,4.24818 2.116026,-1.84294 0.447418,-4.25785 -0.375626,-6.49589 -1.637825,-4.4536 -1.760251,2.84814 -2.315895,0.0705 -1.919219,-9.59408 0.563154,-13.72068 1.663071,-21.84288 2.927193,-21.6155 0.63632,0.11446 1.445657,-4.72811 2.193573,-13.125 1.765974,-19.82666 2.642969,-29.11031 3.781036,-40.02513 0.564515,-5.41406 1.425912,-14.27344 1.914216,-19.6875 0.488304,-5.41406 1.340349,-14.27344 1.893434,-19.6875 1.243349,-12.17097 1.647973,-19.40428 2.255035,-40.3125 0.261992,-9.02344 0.767794,-23.68359 1.124003,-32.57813 0.480397,-11.99549 0.367437,-16.17187 -0.43741,-16.17187 -0.596784,0 -1.085062,0.45544 -1.085062,1.01209 0,0.55665 -0.424467,5.0918 -0.943261,10.07812 -2.246025,21.58741 -2.817468,27.58046 -3.769681,39.53479 -1.552236,19.4872 -1.775796,22.96568 -2.349854,36.5625 -1.448472,34.30774 -2.268501,45.13767 -3.366387,44.45914 -0.45145,-0.27901 -0.833646,-2.27537 -0.849325,-4.43635 -0.02379,-3.27954 -0.196474,-3.63996 -1.044596,-2.18028 -0.662613,1.14039 -0.801317,4.89094 -0.398714,10.78125 0.891529,13.04353 0.789684,18.99587 -0.344423,20.12998 -1.542862,1.54286 -1.237737,10.82621 0.409991,12.47394 1.577016,1.57702 1.969634,9.70982 0.46875,9.70982 -0.515625,0 -0.998686,-2.21484 -1.073468,-4.92188 -0.12905,-4.67146 -0.1776,-4.56415 -0.954293,2.10938 -0.450079,3.86719 -1.232644,8.83028 -1.739032,11.02908 -0.506389,2.1988 -0.924077,5.78474 -0.928197,7.96875 -0.0041,2.18401 -0.661111,9.03342 -1.459982,15.22092 -2.900603,22.46607 -2.658596,27.27585 1.084932,21.5625 2.568731,-3.92038 4.279358,-3.02448 3.949532,2.06848 -0.257927,3.98274 -0.690644,4.72041 -4.4453,7.57803 -3.774039,2.87239 -6.621692,6.62148 -6.621692,8.71783 0,2.08636 8.975457,5.09702 16.171875,5.42456 2.140426,0.0974 2.578125,-0.27117 2.578125,-2.17107 z M 29.0625,492.8125 c 0,-2.40625 0.426861,-4.375 0.948579,-4.375 0.586707,0 0.71576,1.52 0.338289,3.98437 -0.836348,5.46023 -1.286868,5.59698 -1.286868,0.39063 z m 144.375,114.39484 c 0,-0.67658 -0.84375,-2.97652 -1.875,-5.11096 -1.03125,-2.13444 -1.875,-4.28319 -1.875,-4.775 0,-0.49181 -0.78506,-2.51609 -1.74458,-4.49841 -1.84561,-3.81296 -4.51034,-11.10199 -5.77314,-15.79172 -2.3075,-8.56952 -3.57463,-13.71277 -4.6194,-18.75 -0.64167,-3.09375 -1.54833,-6.59407 -2.01478,-7.77848 -0.46645,-1.18442 -0.85456,-3.50474 -0.86245,-5.15625 -0.007,-1.65152 -0.451,-3.63558 -0.98466,-4.40902 -2.11117,-3.05971 0.69271,14.23286 4.7883,29.53125 2.23636,8.35352 2.58797,9.52285 3.9466,13.125 0.77793,2.0625 1.96283,5.64844 2.63313,7.96875 0.6703,2.32031 1.49562,4.64062 1.83407,5.15625 0.33845,0.51562 1.57707,3.36328 2.75252,6.32812 1.99258,5.02596 3.79439,7.0016 3.79439,4.16047 z m -3.23998,-21.52685 c -1.31176,-3.90766 -2.38502,-7.89903 -2.38502,-8.86973 0,-0.97069 -0.6194,-2.58381 -1.37644,-3.5847 -1.82347,-2.41085 -1.8247,-0.31451 -0.003,4.74269 0.74303,2.0625 1.35733,4.67432 1.36509,5.80404 0.007,1.12973 0.436,2.31479 0.95162,2.63346 0.51563,0.31867 0.9375,1.63693 0.9375,2.92946 0,1.29253 0.50889,3.27154 1.13086,4.3978 2.20487,3.99252 1.8418,-0.71694 -0.62084,-8.05302 z M 17.731919,581.48437 c -0.05885,-5.99106 -0.293262,-7.49493 -0.869282,-5.57691 -1.441743,4.8007 -1.433687,13.78004 0.01236,13.78004 0.559711,0 0.905028,-3.30565 0.856919,-8.20313 z m 60.300538,0.1847 c -0.238899,-1.24972 -0.807995,-2.0413 -1.264659,-1.75907 -0.977172,0.60393 -1.11447,4.49333 -0.191209,5.41659 1.035709,1.03571 1.925645,-1.20004 1.455868,-3.65752 z m 77.660833,-11.03828 c -0.55318,-0.55318 -1.00579,-2.37308 -1.00579,-4.04421 0,-1.67113 -0.42188,-3.29916 -0.9375,-3.61783 -0.51563,-0.31867 -0.94396,-1.92561 -0.95185,-3.57096 -0.008,-1.64535 -0.42331,-3.62435 -0.92315,-4.39779 -1.68917,-2.6138 -1.04718,3.12262 1.40625,12.56533 1.28906,4.96134 2.41127,9.33174 2.49379,9.71201 0.0825,0.38028 0.32419,-0.73333 0.53704,-2.47468 0.21284,-1.74134 -0.0656,-3.61868 -0.61879,-4.17187 z m -78.237258,-1.33392 c -0.329218,-3.99609 -0.79072,-20.24921 -1.025561,-36.11803 -0.247368,-16.71538 -0.821774,-29.53233 -1.365489,-30.46875 -1.068202,-1.8397 -0.636142,66.93029 0.447793,71.27428 0.353819,1.41797 1.070476,2.57813 1.592572,2.57813 0.610518,0 0.73566,-2.59274 0.350685,-7.26563 z m 72.150878,-1.20596 c -1.78259,-4.10952 -2.05416,-0.88707 -0.32688,3.87857 0.91199,2.51623 1.21608,2.78508 1.4452,1.27768 0.1596,-1.05 -0.34365,-3.37031 -1.11832,-5.15625 z M 105,571.52104 c 0,-1.22592 -0.65251,-2.77049 -1.45001,-3.43236 -1.47329,-1.22272 -9.900825,-18.1809 -11.163549,-22.46368 -0.380064,-1.28906 -1.982655,-5.04466 -3.561313,-8.34578 -1.578659,-3.3011 -3.209503,-7.30891 -3.624099,-8.90625 -0.500101,-1.92674 -0.56899,-1.16879 -0.20468,2.25203 0.302022,2.83594 0.918585,6.13293 1.370141,7.32666 0.451555,1.19371 0.82101,3.27709 0.82101,4.62973 0,2.5309 11.293331,26.59817 13.85572,29.52798 C 103.0768,574.43455 105,574.14859 105,571.52104 Z M 34.578749,557.57812 c -0.12698,-13.4093 -0.562635,-12.84593 -1.087454,1.40625 -0.204113,5.54297 -0.01847,10.07813 0.412546,10.07813 0.431012,0 0.734721,-5.16797 0.674908,-11.48438 z m 128.518771,3.41747 c -1.62057,-5.78809 -2.32807,-4.40371 -0.86275,1.68818 0.65782,2.73486 1.38403,4.41306 1.61377,3.72933 0.22975,-0.68373 -0.10821,-3.12161 -0.75102,-5.41751 z m 37.12613,-17.94872 c -0.70106,-17.36362 -2.56178,-38.67187 -3.37699,-38.67187 -0.74841,0 -0.57138,11.38101 0.19717,12.6765 0.29928,0.50449 0.57734,3.4485 0.61791,6.54225 0.19636,14.97462 1.41984,33.28125 2.22428,33.28125 0.55432,0 0.68306,-5.27256 0.33763,-13.82813 z m -49.28615,9.19596 c 0,-0.48519 -0.42188,-1.14291 -0.9375,-1.46158 -0.51563,-0.31867 -0.9375,0.0783 -0.9375,0.88217 0,0.80387 0.42187,1.46158 0.9375,1.46158 0.51562,0 0.9375,-0.39698 0.9375,-0.88217 z m 54.46482,-14.72342 c -0.067,-8.19118 -0.48939,-13.26711 -1.15559,-13.88667 -0.77159,-0.71758 -0.89556,0.76352 -0.46752,5.58601 0.32035,3.60937 0.58546,10.11328 0.58912,14.45313 0.004,4.33984 0.26158,7.63571 0.57313,7.32416 0.31155,-0.31155 0.51893,-6.37603 0.46086,-13.47663 z m -45.70381,9.47141 c -0.30533,-0.79568 -0.75621,-1.24562 -1.00195,-0.99988 -0.24575,0.24575 -0.16873,0.89676 0.17114,1.44669 0.92442,1.49574 1.46473,1.20516 0.83081,-0.44681 z m -12.00232,-3.94395 c -0.34764,-1.41796 -1.23713,-3.19587 -1.97663,-3.95089 -1.176,-1.20067 -1.34456,-1.10479 -1.34456,0.76476 0,2.6406 1.59705,5.76426 2.94712,5.76426 0.62584,0 0.76724,-0.97447 0.37407,-2.57813 z m -112.335958,-5.6121 c -0.215488,-1.42506 -0.397555,-0.48165 -0.404594,2.09648 -0.007,2.57812 0.16927,3.74408 0.391797,2.59102 0.222527,-1.15307 0.228286,-3.26245 0.0128,-4.6875 z m 122.780188,3.32695 c -0.29927,-0.74787 -0.52142,-0.52573 -0.5664,0.56641 -0.0407,0.98827 0.18086,1.54199 0.49239,1.23047 0.31152,-0.31153 0.34482,-1.12013 0.074,-1.79688 z m -5.32792,-5.87386 c 0,-0.74918 -0.38755,-2.33121 -0.86123,-3.51563 -0.47368,-1.18441 -1.11642,-2.95215 -1.42831,-3.92829 -1.16662,-3.65114 -1.45005,-0.66689 -0.37784,3.9782 1.03339,4.4769 2.66738,6.59993 2.66738,3.46572 z m -3.27285,-15.45179 c -0.35904,-2.61056 -1.08127,-5.01128 -1.60492,-5.33492 -0.90447,-0.55898 -0.42171,4.97972 0.81311,9.32887 0.93156,3.28111 1.4398,0.71753 0.79181,-3.99395 z m 54.13343,-3.30758 c -0.27677,-2.45556 -0.0377,-4.26513 0.61699,-4.66975 0.58789,-0.36334 1.00847,-0.31284 0.93464,0.1122 -0.33016,1.90055 0.16674,3.17843 1.02873,2.64568 0.51752,-0.31984 0.7296,-1.50489 0.47128,-2.63345 -0.25831,-1.12856 -0.63978,-6.41856 -0.8477,-11.75556 -0.20792,-5.337 -0.84188,-10.16747 -1.40879,-10.73438 -0.74931,-0.74931 -1.03073,0.1723 -1.03073,3.37552 0,3.21146 -0.36631,4.40625 -1.35092,4.40625 -2.18376,0 -2.82232,2.05942 -1.04218,3.3611 0.90384,0.66091 1.35728,1.66453 1.00763,2.23027 -0.34965,0.56575 -0.33485,5.27251 0.0329,10.45947 0.36773,5.18697 0.97718,8.93156 1.35433,8.32132 0.37715,-0.61023 0.48237,-2.91363 0.23383,-5.11867 z m -5.58287,-19.2303 c -0.26999,-1.03241 -0.86479,-1.64601 -1.32179,-1.36357 -0.99832,0.617 -1.1144,6.36939 -0.14804,7.33576 0.93994,0.93994 2.07322,-3.66479 1.46983,-5.97219 z m -123.889714,-10.46726 -0.906393,-3.14968 -0.08455,2.89062 c -0.0465,1.58985 0.196699,3.17188 0.540449,3.51563 1.178292,1.17829 1.356341,-0.10879 0.450496,-3.25657 z m 126.912864,-7.15532 c -0.31879,-1.27014 -0.85405,-2.03492 -1.18949,-1.69949 -0.74716,0.74717 -0.30485,9.07591 0.5515,10.3849 0.84015,1.28422 1.3609,-5.8051 0.63799,-8.68541 z M 73.209523,436.875 c -0.561791,-11.08594 -1.256404,-27.11719 -1.543582,-35.625 -1.146857,-33.97616 -1.904513,-47.73664 -2.668237,-48.46023 -0.44206,-0.41884 -0.525245,6.58866 -0.185751,15.64773 2.091874,55.81967 2.969456,77.32587 4.023497,98.6007 l 0.7583,15.30555 0.318607,-12.65625 c 0.175232,-6.96094 -0.141043,-21.72656 -0.702834,-32.8125 z m 121.850607,36.24763 c -1.20957,-1.20957 -1.33519,1.37399 -0.29451,6.05706 l 0.70313,3.16406 0.29451,-4.11174 c 0.16197,-2.26147 -0.15444,-4.56069 -0.70313,-5.10938 z m -1.79827,-13.88359 -0.90525,-3.14529 -0.0846,3.43895 c -0.0465,1.89142 0.22805,4.21173 0.61011,5.15625 0.63352,1.56615 0.72064,1.5403 0.9898,-0.29366 0.16234,-1.10602 -0.11221,-3.42633 -0.6101,-5.15625 z M 40.962179,453.06472 c -0.237697,-0.91216 -0.447809,-0.39285 -0.466914,1.15403 -0.01911,1.54687 0.175373,2.29318 0.432176,1.65847 0.256803,-0.63472 0.272435,-1.90035 0.03473,-2.8125 z m -10.299122,-4.22566 c -0.224243,-1.16617 -0.416229,-0.43281 -0.426635,1.62969 -0.01041,2.0625 0.173067,3.01664 0.407716,2.12031 0.234649,-0.89634 0.243163,-2.58384 0.01892,-3.75 z m 34.292295,-99.38564 c -0.110494,-19.72282 0.152748,-40.81613 0.584981,-46.87401 0.432234,-6.05789 0.460352,-12.38602 0.06248,-14.0625 -0.580573,-2.44637 -0.771496,-1.65998 -0.967045,3.98309 -0.134008,3.86719 -0.227874,7.53575 -0.208591,8.15236 0.01928,0.61661 -0.34355,7.78849 -0.806296,15.9375 -0.849059,14.95201 -0.09485,68.72239 0.963941,68.72294 0.314282,1.6e-4 0.481017,-16.13656 0.370523,-35.85938 z M 230.87997,374.6111 c 1.99975,-1.99975 3.89152,-7.11129 2.92725,-7.90937 -0.46116,-0.38169 -2.52597,-1.26447 -4.58847,-1.96177 -2.0625,-0.69728 -5.48095,-2.68185 -7.59655,-4.41013 -5.14671,-4.20444 -6.00715,-4.07366 -4.92371,0.74839 0.48081,2.1399 0.60808,5.66524 0.28285,7.83408 -0.58153,3.87792 -0.53157,3.96812 3.01054,5.43597 4.52633,1.87571 9.16328,1.98764 10.88809,0.26283 z M 52.183388,358.82812 c -0.260074,-0.64453 -0.472861,-0.11718 -0.472861,1.17188 0,1.28906 0.212787,1.81641 0.472861,1.17187 0.260074,-0.64453 0.260074,-1.69921 0,-2.34375 z m 182.957002,0.60275 c -0.25945,-2.13771 -0.78416,-2.47975 -4.18534,-2.72831 -2.13879,-0.1563 -4.74778,-0.74394 -5.79775,-1.30587 -2.48163,-1.32813 -5.14201,-1.32353 -4.3194,0.008 1.31037,2.12021 9.31657,6.47084 11.90791,6.47084 2.35098,0 2.65373,-0.30901 2.39458,-2.44413 z m 5.22806,0.0237 c 0.31298,-0.81562 0.56905,-3.94519 0.56905,-6.95459 0,-3.0094 0.25607,-6.13897 0.56905,-6.95457 1.06799,-2.78315 2.2434,-1.48976 2.27326,2.50144 0.0279,3.73413 0.11757,3.86831 1.42694,2.13629 1.12,-1.48153 1.37974,-5.02527 1.3095,-17.86547 -0.0874,-15.96785 -0.58143,-19.13673 -2.77265,-17.78248 -0.85673,0.52948 -0.98357,2.88555 -0.49299,9.15677 0.63887,8.16665 0.59834,8.42759 -1.23448,7.94829 -2.12169,-0.55484 -2.95363,0.82094 -2.95363,4.88441 0,3.69396 -2.57079,9.41282 -4.23133,9.41282 -0.76652,0 -1.39367,0.42187 -1.39367,0.9375 0,0.51562 1.05469,0.9375 2.34375,0.9375 2.15059,0 2.35577,0.367 2.48955,4.45312 0.0802,2.44922 0.0642,5.40235 -0.0354,6.5625 -0.2073,2.41198 1.28031,2.84885 2.13312,0.62645 z M 229.43826,348.4806 c -5.3959,-8.01248 -12.97534,-17.5431 -13.95156,-17.5431 -0.97718,0 -0.94001,0.71116 0.44674,8.54685 1.04223,5.88902 1.35888,6.4206 6.25406,10.4986 3.71365,3.09372 6.00454,4.30901 8.18826,4.34378 l 3.032,0.0483 -3.9695,-5.8944 z m -40.6582,-7.24206 c -0.072,-6.42409 0.26515,-11.50347 0.78482,-11.82464 2.08281,-1.28725 2.8596,1.76335 2.6988,10.59859 -0.12424,6.82604 0.18802,9.69065 1.20774,11.07979 1.95751,2.66669 3.03105,0.99095 1.70839,-2.66678 -1.37646,-3.80656 -1.41112,-7.48604 -0.11448,-12.15546 1.67639,-6.03697 3.2199,-3.69138 3.18136,4.83454 -0.0334,7.38021 0.0408,7.64542 2.1388,7.64542 1.25136,0 2.38883,-0.69599 2.68128,-1.64062 0.27936,-0.90235 1.74269,-4.24125 3.25183,-7.41978 3.11031,-6.5509 3.62804,-13.40502 1.34343,-17.78556 -0.77026,-1.47691 -1.40308,-3.41273 -1.40625,-4.30184 -0.01,-2.8001 -5.16065,-4.67576 -11.58976,-4.22054 -3.16787,0.22431 -6.75154,0.74053 -7.96371,1.14716 -1.84544,0.61906 -2.14856,0.45181 -1.86354,-1.02824 0.46757,-2.42789 4.19527,-4.0207 11.09831,-4.74221 l 5.82087,-0.6084 6.35672,6.70626 c 3.49619,3.68845 6.82721,6.70627 7.40227,6.70627 1.26462,0 1.37282,-5.24838 0.18557,-9.00073 -0.47299,-1.49491 -1.10056,-3.82522 -1.39458,-5.17846 -0.39601,-1.82269 -1.8959,-3.14921 -5.78648,-5.11766 -5.15578,-2.60859 -7.89645,-5.25695 -7.89645,-7.6305 0,-1.96758 1.89647,-1.37304 5.38195,1.68726 4.62312,4.05915 5.79675,2.39321 2.68233,-3.80747 -2.80491,-5.58443 -3.25722,-11.68796 -0.93229,-12.58012 3.29512,-1.26445 15.92472,14.9082 18.96388,24.28393 0.66856,2.0625 1.60085,4.59375 2.07176,5.625 0.47089,1.03125 1.27632,3.03516 1.78982,4.45312 0.9012,2.48853 3.15013,3.43854 4.18316,1.76707 0.4427,-0.71632 -0.41571,-5.68311 -3.1814,-18.40769 -1.02263,-4.70503 -5.30521,-17.76137 -7.14307,-21.77717 -1.3528,-2.95592 -4.12864,-10.45463 -4.12864,-11.1532 0,-0.19299 0.7918,-0.35088 1.75956,-0.35088 1.21452,0 2.37609,1.43321 3.75,4.62692 1.09474,2.5448 1.99044,4.99682 1.99044,5.44891 0,0.4521 0.78398,2.48326 1.74218,4.5137 0.95821,2.03045 2.96212,8.12141 4.45313,13.53547 2.18346,7.92844 2.70758,11.71346 2.6937,19.45312 -0.0173,9.68325 0.88038,12.59682 1.87768,6.09375 0.29653,-1.93359 0.9196,-4.78125 1.38461,-6.32812 0.46501,-1.54688 1.3694,-6.1875 2.00975,-10.3125 1.34239,-8.64729 2.70098,-11.17845 2.74246,-5.10938 0.0251,3.68101 0.16235,3.95126 1.166,2.29688 1.88136,-3.10118 1.19736,-17.84635 -1.10836,-23.89301 -1.07863,-2.82867 -1.96115,-6.27462 -1.96115,-7.65771 0,-1.38307 -0.25607,-3.182 -0.56905,-3.9976 -0.62156,-1.61975 -3.18095,-2.05859 -3.18095,-0.54543 0,0.51562 -0.63281,0.9375 -1.40625,0.9375 -1.89182,0 -1.79091,-0.77191 0.89483,-6.84485 1.26559,-2.86173 2.98188,-8.56303 3.81397,-12.66954 1.56997,-7.74817 1.12023,-12.0916 -1.86233,-17.98561 -1.87989,-3.71494 -7.06376,-20.33613 -7.07957,-22.69946 -0.0188,-2.81939 -1.38582,-4.89216 -2.69334,-4.08407 -0.57327,0.3543 -1.04231,1.64908 -1.04231,2.87728 0,1.2282 -0.36996,2.46174 -0.82213,2.7412 -0.45218,0.27945 -1.75893,2.94107 -2.9039,5.9147 -1.14497,2.97363 -2.43548,6.25035 -2.86781,7.2816 -0.43232,1.03125 -1.70066,5.03906 -2.81853,8.90625 -2.77494,9.59971 -3.79271,12.1875 -4.7933,12.1875 -1.51945,0 -2.02005,-2.90342 -1.02449,-5.94189 0.53422,-1.6304 2.25771,-7.05353 3.82999,-12.05141 1.57229,-4.99788 3.87575,-11.326 5.1188,-14.0625 1.24305,-2.73649 2.75889,-6.50647 3.36853,-8.37771 0.60963,-1.87125 1.93629,-4.15148 2.94814,-5.06718 1.87086,-1.69312 2.52126,-6.46742 1.00843,-7.40241 -1.10823,-0.68492 -2.26465,1.01833 -3.77452,5.55935 -0.68577,2.0625 -2.70189,6.91406 -4.48026,10.78125 -1.77838,3.86719 -4.72038,11.46094 -6.53779,16.875 -1.81742,5.41406 -3.63744,10.26562 -4.04452,10.78125 -0.40707,0.51562 -1.05277,2.39723 -1.43489,4.18136 -1.51197,7.05942 -3.96749,11.12594 -7.94293,13.15406 -5.52782,2.82009 -10.10738,11.25833 -6.11007,11.25833 1.94572,0 1.75226,2.70226 -0.45233,6.31801 -1.01835,1.67021 -3.17055,7.7874 -4.78264,13.59375 -1.6121,5.80634 -3.28205,11.40074 -3.71101,12.43199 -1.79952,4.3262 -1.97559,6.09375 -0.60699,6.09375 0.74505,0 1.87982,-0.63281 2.52172,-1.40625 0.6419,-0.77344 1.95918,-1.40625 2.92729,-1.40625 2.18739,0 2.35851,3.02387 0.26924,4.75781 -0.82003,0.68056 -3.35128,3.84439 -5.625,7.03072 C 182.96219,311.74708 181.78547,315 183.75,315 c 1.6071,0 1.02839,2.31797 -1.01565,4.06813 -1.29894,1.11219 -1.72457,2.20253 -1.27073,3.25523 0.81764,1.89654 0.80004,2.3962 -0.40736,11.56736 -0.52113,3.95836 -0.601,8.36913 -0.17826,9.84375 1.05078,3.6654 1.82417,1.41918 2.14656,-6.23447 0.19704,-4.67758 0.5835,-6.09375 1.66294,-6.09375 1.13963,0 1.4535,1.77742 1.65545,9.375 0.25726,9.67844 0.57599,11.71869 1.83076,11.71883 0.4029,5e-5 0.67576,-5.06764 0.60635,-11.26154 z m -3.78827,-21.17279 c -0.68742,-1.79139 0.22367,-2.64121 4.28873,-4.0003 4.0849,-1.36572 7.1498,-1.34762 11.05724,0.0653 4.4748,1.61811 3.31123,3.14103 -2.13764,2.79783 -2.5335,-0.15958 -6.41733,0.3554 -8.63071,1.14439 -3.61746,1.28948 -4.08029,1.28875 -4.57762,-0.007 z m 36.78613,-83.72 c -0.28612,-0.46297 0.0944,-2.88875 0.84559,-5.39063 0.7512,-2.50188 2.12056,-7.04963 3.04303,-10.10612 1.99421,-6.6076 4.49503,-8.43121 3.7856,-2.76047 -0.50798,4.06048 -3.04135,13.75957 -4.43761,16.9896 -0.94449,2.18493 -2.33346,2.72893 -3.23661,1.26762 z M 42.275419,347.52542 C 41.533193,346.78319 41.25,347.02645 41.25,348.40625 c 0,2.47851 1.311051,3.7941 1.728544,1.73452 0.177261,-0.87446 -0.139145,-2.05137 -0.703125,-2.61535 z m 190.259221,-8.3848 c 0.67558,-3.22265 1.78792,-7.21692 2.47185,-8.87613 1.79184,-4.34704 1.56892,-5.35559 -1.43435,-6.4892 -2.38216,-0.89917 -5.75964,-5.63858 -5.75964,-8.08217 0,-0.91775 -4.5667,-11.14416 -7.21723,-16.16187 C 216.80301,292.35215 210,284.75611 210,287.70088 c 0,1.17939 4.22341,12.08062 6.39943,16.51787 1.29186,2.63427 2.04052,6.81824 2.51631,14.0625 0.63454,9.66152 0.87364,10.5883 3.78762,14.68162 1.71068,2.40302 3.99051,6.09443 5.06629,8.20313 1.07578,2.1087 2.31161,3.834 2.7463,3.834 0.43469,0 1.3431,-2.63672 2.01869,-5.85938 z m -179.394221,2.8711 c -0.299274,-0.74787 -0.521421,-0.52573 -0.566406,0.56641 -0.04071,0.98827 0.18087,1.54199 0.492394,1.23047 0.311522,-0.31153 0.344829,-1.12013 0.07402,-1.79688 z M 17.620887,308.85353 c -0.59306,-2.0335 -1.23146,-3.03123 -1.418667,-2.21718 -0.370769,1.61227 1.402102,7.00933 2.079849,6.33158 0.22941,-0.22941 -0.06812,-2.08088 -0.661182,-4.1144 z m 5.522939,-3.46291 c -0.281741,-1.16015 -1.596546,-6.28391 -2.921791,-11.38613 -1.325244,-5.10221 -2.409535,-11.08904 -2.409535,-13.30404 0,-2.21502 -0.421875,-4.28803 -0.9375,-4.6067 -1.598574,-0.98798 -1.062725,8.60577 0.881603,15.78405 1.000507,3.69377 2.32096,8.71986 2.934339,11.16907 0.613379,2.44922 1.531463,4.45313 2.040187,4.45313 0.508724,0 0.694438,-0.94922 0.412697,-2.10938 z m -8.086029,-7.15763 c -0.547413,-1.02285 -0.995297,-3.12818 -0.995297,-4.67853 0,-1.55034 -0.421875,-3.07954 -0.9375,-3.39821 -1.22318,-0.75596 -1.190471,2.29829 0.0834,7.78798 1.520753,6.55361 2.091866,7.62424 2.496618,4.68025 0.191442,-1.39246 -0.09981,-3.36863 -0.647221,-4.39149 z m 11.160572,-5.42407 c -1.138532,-5.58397 -2.400811,-12.05111 -2.805067,-14.37142 -1.610989,-9.24664 -2.129363,-11.25 -2.910966,-11.25 -1.020344,0 -1.017369,0.69987 0.0267,6.28198 0.462846,2.4746 1.356616,7.4524 1.986156,11.06177 1.88337,10.79803 4.424815,19.77874 5.338585,18.86497 0.239055,-0.23906 -0.496879,-5.00335 -1.635411,-10.5873 z m 156.594131,3.74433 c 0,-1.26583 0.45606,-3.15366 1.01346,-4.19518 0.5574,-1.04151 0.82151,-2.0856 0.58692,-2.3202 -0.74162,-0.74162 -5.3518,8.89335 -5.31919,11.11675 l 0.0312,2.12663 1.84381,-2.21323 c 1.01406,-1.21729 1.84378,-3.24893 1.84378,-4.51477 z M 31.310722,288.98437 C 31.020096,286.53516 30.4272,283.47656 29.993174,282.1875 29.074976,279.46044 27.749831,271.80695 25.691661,257.34375 22.949484,238.0739 22.679784,235.30232 23.18227,231.556 c 0.42189,-3.14542 0.237011,-3.7435 -1.157195,-3.7435 -1.506052,0 -1.603649,0.74977 -1.056706,8.11801 0.331429,4.46491 1.040729,10.8985 1.576222,14.29687 0.535493,3.39839 1.390143,8.92106 1.899222,12.27262 0.50908,3.35156 1.31533,8.20313 1.791669,10.78125 0.476338,2.57813 1.350792,7.42969 1.943232,10.78125 1.448304,8.19338 1.801725,9.375 2.804027,9.375 0.471014,0 0.618606,-2.00391 0.327981,-4.45312 z m 3.376778,-3.86958 c 0,-4.58759 0.405693,-6.7844 1.40625,-7.61479 1.451904,-1.20497 1.987657,-6.5625 0.65625,-6.5625 -0.4125,0 -1.249219,0.49922 -1.859375,1.10937 -1.634864,1.63487 -2.078206,0.71979 -3.096904,-6.3922 -0.507024,-3.53976 -1.313889,-8.33436 -1.793035,-10.65467 -0.479146,-2.32031 -0.99172,-9.38666 -1.139055,-15.70299 -0.199992,-8.5738 -0.572368,-11.48429 -1.469343,-11.48438 -0.938882,-1e-4 -1.073048,2.20244 -0.61389,10.07799 0.323164,5.54297 0.966939,11.55469 1.430609,13.35938 0.46367,1.80469 0.845389,5.21767 0.848265,7.58441 0.0029,2.36674 0.780929,7.42924 1.729008,11.25 0.948079,3.82076 1.731593,7.79059 1.741142,8.82184 0.05386,5.81609 0.83835,12.65625 1.451538,12.65625 0.389697,0 0.70854,-2.90147 0.70854,-6.44771 z m 31.875,-12.51387 c 0,-6.243 -0.220881,-11.13004 -0.490845,-10.86008 -0.269965,0.26997 -0.751313,5.67537 -1.069662,12.01201 -0.427876,8.51672 -0.299876,11.34878 0.490845,10.86008 0.705919,-0.43628 1.069662,-4.52102 1.069662,-12.01201 z m 109.98962,5.14573 c -0.0824,-9.20838 -1.81593,-32.07296 -2.48219,-32.73923 -0.34784,-0.34783 -0.63243,8.22696 -0.63243,19.05508 0,10.82813 0.28828,19.97578 0.64062,20.32812 1.41886,1.41886 2.51969,-1.53743 2.474,-6.64397 z M 12.1875,280.25717 c 0,-1.06168 -0.421875,-1.66959 -0.9375,-1.35092 -0.515625,0.31867 -0.9375,1.18732 -0.9375,1.93033 0,0.74301 0.421875,1.35092 0.9375,1.35092 0.515625,0 0.9375,-0.86865 0.9375,-1.93033 z m 45,-7.03125 c 0,-2.61066 -0.364864,-4.04858 -0.9375,-3.69467 -0.515625,0.31867 -0.9375,2.24201 -0.9375,4.27408 0,2.03207 0.421875,3.69467 0.9375,3.69467 0.515625,0 0.9375,-1.92334 0.9375,-4.27408 z m 4.09915,-4.86655 c 0.261527,-0.90234 0.763482,-10.07812 1.115457,-20.39062 0.660538,-19.35311 -0.419363,-24.61805 -1.577863,-7.69269 -0.360187,5.26223 -0.967492,14.10285 -1.349568,19.64581 C 58.989562,266.95968 59.086368,270 59.795571,270 c 0.558567,0 1.229553,-0.73828 1.491079,-1.64063 z m -24.990162,-8.4375 c -0.214804,-1.41796 -0.390553,-0.25781 -0.390553,2.57813 0,2.83594 0.175749,3.99609 0.390553,2.57812 0.214805,-1.41796 0.214805,-3.73828 0,-5.15625 z m 20.593931,2.40235 c -0.299274,-0.74787 -0.521421,-0.52573 -0.566406,0.56641 -0.04071,0.98827 0.18087,1.54199 0.492394,1.23047 0.311522,-0.31153 0.344829,-1.12013 0.07402,-1.79688 z m -38.204002,-7.68214 c -0.866814,-0.80488 -0.993496,-0.50405 -0.54551,1.29542 0.320921,1.28906 0.66017,3.39844 0.753888,4.6875 0.09643,1.32635 0.333231,0.76402 0.54551,-1.29542 0.216775,-2.10306 -0.101444,-4.08167 -0.753888,-4.6875 z m 160.883663,-7.19535 c 0.51016,-12.02743 -0.0347,-18.69673 -1.52749,-18.69673 -0.48197,0 -0.85509,7.03596 -0.85509,16.125 0,19.00678 1.61168,20.74642 2.38258,2.57173 z m -140.071816,2.07602 c -0.766268,-2.09168 -0.911046,-1.58884 -0.902199,3.1335 0.0097,5.15695 0.08561,5.36426 0.912738,2.4915 0.580809,-2.01725 0.577055,-4.02104 -0.01054,-5.625 z m 27.727293,0.56631 c -0.224243,-1.16617 -0.416229,-0.43281 -0.426635,1.62969 -0.01041,2.0625 0.173067,3.01664 0.407716,2.12031 0.234649,-0.89634 0.243163,-2.58384 0.01892,-3.75 z M 34.6875,248.4375 c 0,-2.57813 -0.421875,-4.6875 -0.9375,-4.6875 -1.033968,0 -1.310814,7.75169 -0.3125,8.75 1.118367,1.11837 1.25,0.69056 1.25,-4.0625 z M 188.90625,243.75 c -0.45358,-0.73391 -0.99288,-0.78837 -1.61788,-0.16337 -0.51563,0.51563 -0.63132,1.43289 -0.25712,2.03837 0.45358,0.73391 0.99288,0.78837 1.61788,0.16337 0.51563,-0.51563 0.63132,-1.43289 0.25712,-2.03837 z m 14,-1.06286 c 1.9221,-1.71537 -0.60366,-1.94539 -4.09147,-0.3726 -5.34167,2.40875 -5.96619,4.70064 -0.7297,2.67785 2.1704,-0.83839 4.33992,-1.87576 4.82117,-2.30525 z M 38.4375,238.59375 c 0,-2.83594 -0.421875,-5.15625 -0.9375,-5.15625 -1.030928,0 -1.237129,4.88016 -0.346607,8.20312 0.904975,3.37691 1.284107,2.47732 1.284107,-3.04687 z m 30,1.875 c 0,-1.28906 -0.161756,-2.34375 -0.359459,-2.34375 -0.197702,0 -0.561075,1.05469 -0.807495,2.34375 -0.24642,1.28906 -0.08467,2.34375 0.359459,2.34375 0.444122,0 0.807495,-1.05469 0.807495,-2.34375 z M 193.125,238.125 c 1.05427,-1.96991 3.69333,-2.47973 5.20312,-1.00515 0.5491,0.53629 2.07715,0.36626 3.98479,-0.44338 3.5128,-1.4909 6.22567,-6.70312 11.44491,-21.98897 4.56533,-13.37073 10.29437,-26.42124 12.78063,-29.1138 2.59873,-2.81435 2.62078,-2.98979 0.8597,-6.83827 -0.74351,-1.6248 -1.48179,-4.00887 -1.64062,-5.29793 -0.9958,-8.08196 -8.27792,5.32183 -17.31732,31.875 -0.7899,2.32031 -1.81678,4.61953 -2.28194,5.10937 -1.02178,1.07596 -1.12848,4.26613 -0.14265,4.26439 0.69905,-9.4e-4 4.92188,-8.82471 4.92188,-10.28413 0,-0.92865 2.89389,-2.13323 3.5496,-1.47753 0.2578,0.25781 -0.35947,2.48258 -1.37172,4.94395 -1.01225,2.46136 -3.04231,8.27207 -4.51125,12.9127 -1.46893,4.64062 -3.31861,9.19884 -4.1104,10.12938 -1.37941,1.62114 -1.50363,1.60699 -2.97135,-0.33881 l -1.53175,-2.0307 -3.40631,2.99079 c -3.8932,3.41828 -7.72574,3.79872 -4.59962,0.45658 0.9866,-1.05476 1.98548,-2.49278 2.21976,-3.1956 0.23427,-0.70282 2.48101,-2.37107 4.99276,-3.70724 5.05584,-2.68954 6.49065,-4.77315 3.28689,-4.77315 -1.16437,0 -3.87483,1.80187 -6.28552,4.1785 -2.3311,2.29818 -4.62127,4.30615 -5.08925,4.46214 -1.53249,0.51082 -1.42978,11.04686 0.10768,11.04686 0.49748,0 1.35607,-0.84375 1.90798,-1.875 z m 21.60643,-38.90625 c -0.0173,-2.07263 2.05356,-8.50373 3.06356,-9.51375 0.35338,-0.35337 0.64251,-1.39104 0.64251,-2.30592 0,-2.06116 1.72529,-3.23629 2.95136,-2.01022 0.59233,0.59233 0.28872,2.02892 -0.86445,4.09019 -0.97759,1.74747 -2.03969,4.23189 -2.36021,5.52095 -0.32052,1.28906 -1.22048,3.1875 -1.99992,4.21875 -1.41715,1.875 -1.41715,1.875 -1.43285,0 z m 7.45607,-19.16342 c 0,-2.06177 1.4122,-3.26451 2.81503,-2.39751 0.62514,0.38635 0.61408,1.19003 -0.033,2.39908 -1.25212,2.33966 -2.78203,2.3388 -2.78203,-0.002 z M 33.365063,233.67187 c -0.241781,-2.44921 -0.465018,-4.76953 -0.496082,-5.15625 -0.03106,-0.38671 -0.478356,-0.70312 -0.993981,-0.70312 -1.030928,0 -1.237129,4.88016 -0.346607,8.20312 1.022079,3.81388 2.285394,2.20178 1.83667,-2.34375 z m 11.30042,-12.13139 c -1.1169,-1.1169 -2.477983,0.98535 -2.477983,3.82735 0,4.6452 1.306033,4.9828 2.181235,0.56385 0.426242,-2.15213 0.559779,-4.12817 0.296748,-4.3912 z m 132.207177,2.92775 c 0.3101,-0.8081 0.0859,-1.94716 -0.49818,-2.53125 -0.58409,-0.58409 -1.06198,-1.84626 -1.06198,-2.80481 0,-0.95856 -0.33056,-1.53853 -0.73458,-1.28883 -1.0109,0.62477 -0.21499,8.09416 0.86247,8.09416 0.47765,0 1.12217,-0.66117 1.43227,-1.46927 z M 63.949976,221.25 c 0.227033,-1.54688 0.06398,-2.8125 -0.362344,-2.8125 -0.426323,0 -0.775132,1.26562 -0.775132,2.8125 0,1.54687 0.163055,2.8125 0.362345,2.8125 0.199289,0 0.548098,-1.26563 0.775131,-2.8125 z m -33.357832,-5.31653 c -0.330117,-2.40847 -0.809336,-4.58816 -1.064929,-4.84376 -1.019596,-1.01959 -1.768715,1.03364 -1.551871,4.25347 0.259473,3.8528 0.755437,4.96932 2.207413,4.96932 0.662704,0 0.803368,-1.50463 0.409387,-4.37903 z m 158.782296,-2.18014 c 0.60849,-3.60755 1.49036,-6.79651 1.9597,-7.08658 0.46935,-0.29008 0.85336,-1.50094 0.85336,-2.69081 0,-1.87129 0.86214,-4.46656 4.69468,-14.13219 0.4089,-1.03125 1.62925,-3.87431 2.71189,-6.31791 1.08263,-2.4436 1.96843,-4.8753 1.96843,-5.40377 0,-1.67842 4.1797,-7.4848 5.15625,-7.16298 1.33625,0.44035 0.56738,4.39225 -1.39258,7.15777 -0.91675,1.29354 -2.30892,4.25033 -3.0937,6.57064 -1.33093,3.93503 -5.48442,14.96019 -7.24027,19.21875 -0.99555,2.41458 -2.8047,10.24143 -2.8047,12.13389 0,0.80293 0.42187,1.45986 0.9375,1.45986 0.51562,0 0.9375,-0.8239 0.9375,-1.83089 0,-1.00699 0.37586,-2.79996 0.83525,-3.98438 0.45938,-1.18441 1.8043,-5.23619 2.98871,-9.00393 1.1844,-3.76775 2.49604,-7.06217 2.91475,-7.32095 0.41871,-0.25878 0.76129,-1.29508 0.76129,-2.3029 0,-1.00782 0.40138,-2.56495 0.89197,-3.4603 0.49058,-0.89535 2.62195,-5.42465 4.73639,-10.06514 2.11443,-4.64047 4.82896,-9.49204 6.03226,-10.78125 1.99461,-2.137 5.21438,-7.60783 5.21438,-8.85995 0,-0.71068 -6.99443,-0.65047 -8.88891,0.0765 -0.84824,0.3255 -2.8115,3.2782 -4.36281,6.56155 -1.98546,4.20222 -3.46351,6.13111 -4.99209,6.51475 -4.34736,1.09112 -9.94521,11.21087 -12.85379,23.23697 -2.78697,11.52331 -3.14539,18.78913 -1.06766,21.64314 0.93308,1.28169 1.76386,2.3436 1.84618,2.35981 0.0823,0.0162 0.64752,-2.92216 1.25602,-6.52971 z m -0.93694,-14.34708 c 0,-1.70156 0.34852,-3.49453 0.77449,-3.98438 0.42597,-0.48984 1.33178,-2.78906 2.01293,-5.10937 1.35535,-4.61697 6.54286,-14.0625 7.72316,-14.0625 1.00175,0 0.93962,1.64062 -0.0862,2.27457 -0.45406,0.28062 -1.04897,1.46567 -1.32204,2.63345 -0.27306,1.16778 -1.81929,5.70917 -3.43607,10.09198 -1.61677,4.38281 -3.18043,8.70703 -3.4748,9.60937 -0.88589,2.71561 -2.19152,1.8499 -2.19152,-1.45312 z M 23.90339,212.57812 c -0.713509,-6.37585 -1.804369,-8.55795 -2.765058,-5.53109 -0.533021,1.6794 0.768221,8.70041 1.980744,10.68734 1.1308,1.85302 1.383092,0.19439 0.784314,-5.15625 z m 16.40911,2.02463 c 0,-1.017 -0.738281,-2.07759 -1.640625,-2.35686 -0.902344,-0.27927 -2.419987,-0.92807 -3.372543,-1.44179 -0.952554,-0.51371 -1.940293,-0.72564 -2.194974,-0.47096 -0.852341,0.85234 0.756394,4.35436 2.000276,4.35436 0.675555,0 1.749615,0.62817 2.386799,1.39593 1.429227,1.72211 2.821067,0.99158 2.821067,-1.48068 z m 160.99059,-1.55588 c 1.07241,-2.44921 2.47119,-6.14062 3.10841,-8.20312 0.63722,-2.0625 1.8982,-5.4375 2.80218,-7.5 0.90399,-2.0625 2.71085,-6.49219 4.01525,-9.84375 4.24215,-10.89993 6.40101,-15.15303 9.15369,-18.03345 2.77882,-2.90777 2.8426,-4.46655 0.18274,-4.46655 -1.90994,0 -4.94036,2.69331 -4.94036,4.39078 0,0.70824 -1.27208,3.80766 -2.82683,6.88763 -1.55476,3.07996 -3.69705,7.81402 -4.76064,10.52013 -1.06359,2.70612 -2.49321,6.18583 -3.17693,7.73271 -1.69067,3.82499 -5.75097,16.17771 -6.54826,19.92187 -0.95913,4.50414 0.75596,3.6977 2.99075,-1.40625 z m -150.891263,-8.9337 c 0.63287,-2.72212 1.150673,-5.80181 1.150673,-6.84375 0,-1.04193 0.461438,-2.35586 1.025419,-2.91984 1.391902,-1.39191 0.683247,-4.50583 -1.025419,-4.50583 -0.759314,0 -1.527909,-0.76507 -1.707989,-1.70014 -0.234073,-1.21544 0.163178,-1.61635 1.393411,-1.40625 1.549902,0.2647 1.710582,-0.40451 1.617673,-6.73736 -0.05674,-3.86719 -0.398739,-8.29688 -0.760009,-9.84375 -0.361269,-1.54688 -0.850231,-3.76172 -1.086581,-4.92188 -0.23635,-1.16015 -0.883153,-2.10937 -1.437339,-2.10937 -1.121671,0 -0.42056,7.46253 1.248512,13.289 0.542817,1.89488 0.713721,4.15724 0.379787,5.02745 -1.085203,2.828 -3.395818,-0.28941 -3.411821,-4.60311 -0.0079,-2.12828 -0.407076,-4.49058 -0.887067,-5.24956 -1.636718,-2.58806 -2.259989,1.71157 -1.063894,7.33926 1.958346,9.21413 2.998637,20.12151 2.404647,25.21258 -0.743847,6.37551 0.67556,6.35747 2.159997,-0.0275 z M 66.5625,203.32685 c 0,-0.51563 -0.421875,-0.67678 -0.9375,-0.3581 -0.515625,0.31868 -0.9375,1.00128 -0.9375,1.5169 0,0.51563 0.421875,0.67678 0.9375,0.3581 0.515625,-0.31868 0.9375,-1.00128 0.9375,-1.5169 z m 63.58729,-2.75743 c 3.77769,-2.28975 9.26207,-5.32228 12.1875,-6.73897 2.92543,-1.41668 6.37365,-3.11538 7.66271,-3.77485 2.96721,-1.51803 9.91559,-13.61656 10.79143,-18.79007 0.36516,-2.15698 0.80425,-14.46866 0.97577,-27.35928 0.17151,-12.89063 0.50741,-24.70313 0.74644,-26.25 0.23903,-1.54688 1.69919,-5.55469 3.2448,-8.90625 5.24526,-11.374059 5.80406,-13.269994 5.80406,-19.69265 0,-5.642058 -0.21542,-6.395 -1.9602,-6.851268 -1.68543,-0.440752 -1.88044,-0.194848 -1.39123,1.75433 0.56923,2.26798 -0.56846,5.04411 -3.21107,7.835442 -1.56336,1.651346 -7.57478,2.038755 -8.6719,0.55886 -0.40827,-0.550704 -0.94978,-0.04778 -1.29124,1.199247 -0.32345,1.181239 -1.05069,1.993517 -1.61606,1.805051 -1.16657,-0.388856 -5.68348,-7.774761 -6.68554,-10.932003 -0.59908,-1.887521 -0.4742,-1.987058 1.30102,-1.036987 2.13794,1.144188 2.64041,0.161665 0.83872,-1.640022 -1.88655,-1.886551 -5.4375,-1.396764 -5.4375,0.75 0,1.03125 0.37541,1.875 0.83425,1.875 1.20583,0 4.95413,8.352195 4.25556,9.482503 -0.36446,0.589716 -1.25095,0.352594 -2.32893,-0.622971 -1.67119,-1.512404 -1.71859,-1.440188 -1.19052,1.813924 0.63801,3.931575 -0.67114,4.477228 -2.50786,1.045294 -1.72449,-3.222249 -3.1681,-2.949871 -2.48438,0.46875 0.71926,3.59629 -0.01,3.54547 -3.36342,-0.234375 l -2.70309,-3.046875 0.39544,2.578125 c 0.47642,3.106059 -1.31185,3.464953 -2.63787,0.529397 -1.12778,-2.496675 -3.26918,-3.355188 -3.26918,-1.310644 0,3.120234 -2.98771,1.332272 -4.9608,-2.968753 -1.93778,-4.224056 -2.05912,-4.317647 -2.35867,-1.819419 -0.5754,4.798738 -2.74468,2.378258 -7.21104,-8.046093 -0.83359,-1.945563 -1.87344,-3.316237 -2.31079,-3.045941 -0.92643,0.572571 -0.19011,4.032253 1.01697,4.778266 0.45338,0.280208 0.82433,1.328321 0.82433,2.32914 0,2.948846 -2.59929,2.083583 -4.26112,-1.418457 -2.10444,-4.434762 -3.80935,-5.766662 -4.41534,-3.449325 -0.60187,2.301551 1.90178,5.155888 9.89733,11.283671 10.50277,8.049313 21.64242,11.714913 30.9845,10.195733 9.48239,-1.54201 15.60713,-1.91185 15.60713,-0.94243 0,2.18227 -12.08357,5.15982 -20.61681,5.08025 -6.35266,-0.0593 -7.78451,-0.45109 -15,-4.10499 -4.38732,-2.22172 -11.30714,-6.692061 -15.37738,-9.934075 -4.07024,-3.242018 -7.86711,-5.741687 -8.4375,-5.554819 -0.57038,0.186868 -1.17164,1.71025 -1.33612,3.385291 -0.23853,2.429199 0.0935,3.148182 1.64062,3.55277 1.06683,0.278981 1.93969,1.123294 1.93969,1.876256 0,1.55625 3.90408,5.692367 7.73438,8.194077 1.41796,0.92612 2.57812,2.48814 2.57812,3.47114 0,1.01084 1.04941,2.26542 2.41563,2.88791 2.28571,1.04145 2.39326,1.40593 1.99958,6.77678 -0.22883,3.12187 -0.94218,9.97138 -1.58523,15.22111 -0.91979,7.50907 -0.93065,12.00828 -0.0509,21.09375 1.6774,17.3234 1.67975,19.89994 0.0184,20.22767 -1.65638,0.32673 -3.73495,-7.23889 -3.73495,-13.59461 0,-2.15783 -0.48455,-8.18455 -1.07677,-13.39272 -1.11511,-9.80631 -0.45732,-17.00881 2.49653,-27.33623 1.52152,-5.31961 1.06122,-5.87429 -6.15969,-7.42291 -3.7634,-0.8071 -5.83032,-1.9079 -7.97138,-4.2454 -3.507881,-3.82971 -4.819762,-3.95174 -6.209446,-0.57764 -0.942634,2.28867 -1.10813,2.3676 -1.474046,0.70312 -0.226707,-1.03125 -0.842924,-2.29687 -1.369371,-2.8125 -0.650219,-0.63685 -0.811504,1.2422 -0.502928,5.85938 0.249838,3.73828 0.11864,6.79687 -0.29155,6.79687 -0.410191,0 -1.424791,2.42578 -2.254666,5.39063 -0.829875,2.96484 -1.863994,6.23437 -2.298041,7.26562 -3.326164,7.9026 -4.099018,10.02653 -4.655229,12.79332 -0.380492,1.89271 -1.421185,3.4955 -2.614634,4.02683 -2.178766,0.97 -3.721618,7.7755 -2.127182,9.38297 0.554428,0.55896 0.883403,-0.1892 0.883403,-2.00907 0,-3.09324 1.898961,-4.57634 3.635761,-2.83954 0.578456,0.57846 1.051739,2.18163 1.051739,3.56261 0,4.1774 4.142962,13.84665 8.043678,18.77313 3.973206,5.01803 13.106032,12.7891 17.910922,15.24032 1.64222,0.83776 6.07191,2.00105 9.84375,2.58506 8.91362,1.38014 9.42922,1.54898 8.97195,2.93799 -0.58366,1.77296 -8.50289,1.93259 -13.39967,0.27009 -6.34338,-2.15364 -9.65192,-3.9737 -15.588333,-8.5753 -8.005092,-6.20514 -8.349415,-5.57991 -2.136488,3.87944 2.348944,3.57634 5.996321,8.34342 8.105281,10.59351 l 3.83447,4.09108 7.59784,-0.38055 c 7.01948,-0.35158 8.1207,-0.69746 14.46639,-4.54372 z M 165.9375,96.064331 c 0,-1.511325 2.49522,-2.944108 3.45528,-1.98405 0.66771,0.667707 -1.45084,3.419719 -2.63257,3.419719 -0.45249,0 -0.82271,-0.64605 -0.82271,-1.435669 z M 29.0625,200.68033 c 0,-2.92401 -1.327934,-4.51145 -2.36723,-2.82984 -0.824059,1.33336 0.27806,5.58701 1.447591,5.58701 0.505801,0 0.919639,-1.24073 0.919639,-2.75717 z m 15.938036,-7.55128 C 44.317785,187.97057 43.405545,183.75 42.973335,183.75 c -1.107866,0 -0.968512,9.10726 0.208004,13.59375 1.481951,5.65122 1.808702,6.41621 2.461679,5.76323 0.329386,-0.32939 0.04027,-4.81945 -0.642482,-9.97793 z m -10.650419,3.58751 c -0.705001,-6.74509 -1.042142,-7.30132 -3.148625,-5.19484 -1.463489,1.46349 -1.462022,1.78518 0.02232,4.89788 0.873779,1.83233 1.588688,3.95002 1.588688,4.70596 0,0.75594 0.481973,1.37444 1.071052,1.37444 0.752651,0 0.891351,-1.7193 0.466565,-5.78344 z m 126.481963,-2.73527 c 6.89136,-4.30082 16.34263,-15.05331 16.35191,-18.60317 0.002,-0.73734 -1.57852,0.51616 -3.51212,2.78555 -6.69263,7.85493 -10.77457,11.18991 -13.00961,10.62895 -1.48428,-0.37254 -2.37137,0.0421 -3.13237,1.46403 -0.58392,1.09107 -2.80006,2.67932 -4.92476,3.52946 -3.26051,1.30459 -3.58217,1.65577 -2.06223,2.2514 3.33883,1.3084 5.63239,0.85004 10.28918,-2.05622 z M 38.466079,189.96607 c -0.663105,-0.6631 -0.947442,0.0483 -0.906655,2.2683 0.05584,3.03911 0.114163,3.09744 0.966079,0.96608 0.60036,-1.502 0.580284,-2.59466 -0.05943,-3.23437 z m 33.265683,-1.46933 c -0.348792,-1.58803 -1.39925,-3.29679 -2.334354,-3.79725 -0.935104,-0.50045 -2.144492,-2.18444 -2.68753,-3.7422 -1.334415,-3.82791 -2.959878,-3.58135 -2.959878,0.44896 0,2.17966 0.438436,3.28125 1.305948,3.28125 0.718271,0 1.548781,0.63281 1.845576,1.40625 0.296797,0.77344 1.185683,1.40625 1.975303,1.40625 0.78962,0 1.435673,0.77344 1.435673,1.71875 0,1.78527 0.95275,3.266 1.651713,2.56704 0.220942,-0.22095 0.116339,-1.70102 -0.232451,-3.28905 z M 173.81204,173.56583 c 2.6186,-3.56724 3.54979,-5.96386 4.28003,-11.01562 1.04435,-7.22479 1.32865,-44.15844 0.33224,-43.16202 -0.351,0.35101 -1.38176,3.56615 -2.29056,7.14479 -1.24726,4.91137 -1.42463,7.26406 -0.72347,9.59618 1.15607,3.84518 0.1399,20.28629 -1.61058,26.05834 -0.70367,2.32031 -1.28397,5.19085 -1.28956,6.37897 -0.006,1.18812 -1.27382,3.50843 -2.8183,5.15625 -3.27623,3.49542 -3.4867,4.40228 -1.02169,4.40228 1.06366,0 3.1589,-1.85779 5.14189,-4.55917 z M 56.952933,170.12977 c -0.515049,-6.41642 0.428841,-9.44408 2.183778,-7.00477 1.264334,1.75739 0.442133,-9.42329 -1.206477,-16.40625 -1.358178,-5.75279 -1.313139,-5.69049 -3.063828,-4.23756 -2.015508,1.67273 -1.774614,5.8686 0.446094,7.77003 1.438329,1.23154 1.871657,2.75382 1.860644,6.53648 -0.01028,3.52947 -0.272665,4.53135 -0.923144,3.5248 -0.499834,-0.77344 -0.915248,-2.77734 -0.923144,-4.45313 -0.0098,-2.07695 -0.462012,-3.04687 -1.420606,-3.04687 -1.770453,0 -1.766886,2.36246 0.01628,10.7809 0.764488,3.60918 1.389975,8.16924 1.389975,10.13345 0,2.40843 0.343708,3.35888 1.055556,2.91893 0.686304,-0.42415 0.890904,-2.70357 0.584877,-6.51601 z m 21.086373,1.88762 c -0.247877,-1.29668 -0.822187,-2.5872 -1.276245,-2.86782 -0.454059,-0.28063 -0.825561,-1.54002 -0.825561,-2.79865 0,-1.25863 -0.387869,-2.28842 -0.861931,-2.28842 -0.90091,0 0.377978,5.73514 1.933757,8.67187 1.211966,2.28775 1.558285,2.04668 1.02998,-0.71698 z m 108.486664,-0.63167 c 1.05135,-1.12847 1.91153,-2.32305 1.91153,-2.65461 0,-1.36314 13.85204,-9.35611 16.21439,-9.35611 0.71913,0 2.07109,-0.84375 3.00436,-1.875 1.37743,-1.52205 2.86072,-1.86875 7.87968,-1.84178 3.58193,0.0192 7.16875,0.59683 8.52657,1.37303 3.86837,2.21136 5.625,1.78948 5.625,-1.35092 0,-1.51644 0.42187,-3.0179 0.9375,-3.33658 1.24969,-0.77235 1.18501,-3.50129 -0.15963,-6.73584 -1.06898,-2.57147 -1.12374,-2.49509 -2.13509,2.97796 -0.77431,4.19023 -1.47163,5.70062 -2.74513,5.94587 -1.49898,0.28869 -1.68172,-0.28193 -1.49858,-4.67961 0.34892,-8.3784 0.0221,-12.97713 -0.92214,-12.97713 -0.49393,0 -1.02127,3.26953 -1.17187,7.26562 -0.21524,5.71165 -0.57458,7.26563 -1.68006,7.26563 -1.14843,0 -1.42776,-1.71879 -1.52353,-9.375 -0.10337,-8.26292 -0.82345,-14.90085 -3.94076,-36.32736 -1.10281,-7.580012 -2.03571,-7.759374 -2.03571,-0.39139 0,3.4375 -0.3931,6.25 -0.87355,6.25 -1.15489,0 -4.1541,-13.597988 -3.52762,-15.993675 0.75687,-2.894273 -3.72678,-7.724783 -6.5195,-7.023856 -1.86708,0.468611 -2.20433,0.200082 -2.20433,-1.755198 0,-2.069579 -3.49327,-5.796498 -4.49458,-4.795194 -0.21392,0.213922 0.68456,4.950313 1.99663,10.525311 5.10847,21.706072 6.42217,32.402052 6.07955,49.499482 -0.24881,12.41576 -0.5417,15.0343 -1.7066,15.25708 -1.19601,0.22875 -1.44801,-2.08217 -1.68556,-15.45687 -0.26558,-14.95315 -1.04309,-21.19612 -5.86991,-47.13208 -1.35249,-7.267327 -4.54406,-17.177864 -5.78572,-17.965953 -3.71103,-2.355404 -3.75957,-0.210544 -0.24083,10.640813 5.79525,17.87185 7.92572,30.85639 8.50846,51.85639 0.3152,11.35887 0.16561,19.25929 -0.3795,20.04199 -1.17374,1.6853 -3.20534,0.41587 -2.56904,-1.60527 0.78001,-2.47759 -1.13029,-33.47665 -2.66713,-43.28047 -2.54275,-16.220663 -4.52444,-24.42964 -5.51178,-22.832078 -1.00906,1.632691 -1.02525,11.040678 -0.0224,13.026068 0.88513,1.75235 1.71754,6.22413 4.1026,22.03944 1.43237,9.49816 0.84657,38.79243 -0.80883,40.44691 -2.4043,2.40295 -2.98497,-1.26432 -2.37302,-14.98679 0.57692,-12.93666 -0.45,-28.48296 -2.66101,-40.2843 -0.9439,-5.03815 -2.64976,-5.89137 -2.67566,-1.33829 -0.007,1.38753 -0.38443,3.10713 -0.83674,3.82133 -0.50829,0.80258 -0.29568,2.55914 0.55666,4.59906 2.62159,6.27435 3.48831,46.55324 1.06678,49.57581 -0.5634,0.70323 -0.44221,1.79942 0.33684,3.04688 1.53159,2.45246 2.11066,2.4391 4.47928,-0.10331 z m 21.1818,-19.7451 c -0.24912,-1.16015 -0.67387,-7.17187 -0.94389,-13.35937 -0.55456,-12.70785 -1.41089,-20.79801 -3.75343,-35.46022 -1.46586,-9.175028 -1.46413,-12.212206 0.007,-10.741945 0.28413,0.284122 0.63323,1.514591 0.77579,2.734377 0.14256,1.219782 0.58245,3.061538 0.97754,4.092788 3.23187,8.43573 4.8484,20.10466 5.8119,41.95312 0.50319,11.41034 0.39682,12.89063 -0.92631,12.89063 -0.82212,0 -1.6986,-0.94922 -1.94772,-2.10938 z m 4.87525,-16.875 c -0.42907,-15.22955 0.13923,-21.4985 1.58647,-17.50051 0.74938,2.07014 1.66007,12.49102 2.10291,24.06301 0.37987,9.92623 0.29737,10.54688 -1.40187,10.54688 -1.69874,0 -1.83398,-1.01146 -2.28751,-17.10938 z M 80.964024,167.34375 c -0.296795,-0.77344 -0.70543,-1.40625 -0.908076,-1.40625 -0.202646,0 -0.368448,0.63281 -0.368448,1.40625 0,0.77344 0.408635,1.40625 0.908077,1.40625 0.499442,0 0.665244,-0.63281 0.368447,-1.40625 z m -2.511105,-6.26953 c -0.299274,-0.74787 -0.521421,-0.52573 -0.566406,0.56641 -0.04071,0.98827 0.18087,1.54199 0.492394,1.23047 0.311522,-0.31153 0.344829,-1.12013 0.07402,-1.79688 z M 172.5,143.70535 c 0,-0.66294 -0.63281,-1.20535 -1.40625,-1.20535 -0.9375,0 -1.40625,-0.9375 -1.40625,-2.8125 0,-1.54688 -0.42188,-2.8125 -0.9375,-2.8125 -0.90968,0 -1.36559,6.75941 -0.51339,7.61161 0.94801,0.948 4.26339,0.34047 4.26339,-0.78126 z M 70.952919,141.38672 c -0.299274,-0.74787 -0.521421,-0.52573 -0.566406,0.56641 -0.04071,0.98827 0.18087,1.54199 0.492394,1.23047 0.311522,-0.31153 0.344829,-1.12013 0.07402,-1.79688 z m 3.076596,-7.26259 C 74.563282,133.12678 75,130.89084 75,129.15538 c 0,-1.73546 0.401838,-3.55722 0.892973,-4.04835 0.511102,-0.5111 0.60981,-2.87254 0.23082,-5.52201 l -0.662154,-4.62902 -1.570027,5.56887 c -2.942347,10.4365 -2.853594,19.18893 0.137903,13.59926 z m -8.497965,-0.76476 c -0.0514,-0.90234 -0.43122,-2.69531 -0.84405,-3.98437 -0.637643,-1.99104 -0.764663,-1.74414 -0.84405,1.64062 -0.0514,2.19141 0.328425,3.98438 0.84405,3.98438 0.515625,0 0.895448,-0.73828 0.84405,-1.64063 z m 102.28722,-8.20312 c 0.88988,-3.41287 3.12746,-9.82942 6.702,-19.21875 2.32121,-6.097191 2.67614,-8.321128 2.67177,-16.740927 -0.005,-8.246964 0.20681,-9.628385 1.40121,-9.170049 C 179.65974,80.435586 180,79.853918 180,77.622521 180,74.043583 177.67169,71.25 174.68884,71.25 c -1.21444,0 -4.32967,-1.491234 -6.92273,-3.313853 -4.26149,-2.995333 -6.51611,-3.499332 -6.51611,-1.456616 0,0.409132 2.4281,2.651495 5.39577,4.983031 4.62043,3.630018 5.63077,5.002347 7.03125,9.550425 2.19113,7.115742 2.10289,13.365138 -0.24303,17.212797 -1.02932,1.688241 -1.87149,3.657966 -1.87149,4.377146 0,0.7192 -0.60617,2.50197 -1.34705,3.96172 -3.52876,6.95275 -5.18957,12.81052 -5.69706,20.09382 -0.54792,7.86346 -0.54672,7.8689 1.00924,4.59153 0.85679,-1.80469 1.88781,-4.54687 2.29114,-6.09375 z m 3.72938,5.39062 c 0.008,-0.64453 -0.40753,-1.17187 -0.92315,-1.17187 -0.51563,0 -0.93104,1.16016 -0.92315,2.57812 0.0112,2.00901 0.21498,2.2677 0.92315,1.17188 0.49984,-0.77344 0.91525,-1.93359 0.92315,-2.57813 z M 66.265419,117.01172 c -0.299274,-0.74787 -0.521421,-0.52573 -0.566406,0.56641 -0.04071,0.98827 0.18087,1.54199 0.492394,1.23047 0.311522,-0.31153 0.344829,-1.12013 0.07402,-1.79688 z m 6.091252,-1.89517 c 0.187341,-1.29505 1.160184,-2.27266 2.596654,-2.60937 3.769728,-0.88361 9.02749,-13.13218 5.63706,-13.13218 -0.424332,0 -1.539353,2.39529 -2.477824,5.32287 -1.910545,5.96 -4.050061,7.71266 -4.050061,3.31778 0,-2.68074 3.264506,-11.945309 4.845018,-13.750025 1.077939,-1.230848 0.982865,-5.203125 -0.124533,-5.203125 -1.814223,0 -4.924491,8.985984 -6.652075,19.21875 -0.435262,2.57813 -1.07167,5.63672 -1.41424,6.79688 -0.366454,1.24104 -0.21876,2.10937 0.358784,2.10937 0.539901,0 1.116449,-0.93192 1.281217,-2.07095 z m -3.621948,-7.7728 c 0.269099,-2.0625 0.783366,-4.91016 1.142815,-6.32812 1.020939,-4.027439 -0.844653,-3.023058 -2.149276,1.1571 -1.35906,4.35459 -1.58347,11.14438 -0.324286,9.81165 0.462811,-0.48985 1.061648,-2.57813 1.330747,-4.64063 z m -3.854513,-4.16924 c 0.223036,-1.51964 0.05998,-2.54943 -0.362345,-2.28842 -0.75165,0.46454 -1.119877,5.05141 -0.40552,5.05141 0.199289,0 0.544828,-1.24334 0.767865,-2.76299 z M 96.5625,95.625 c 0,-1.940912 -2.261728,-2.58712 -3.28125,-0.9375 -0.784725,1.269712 0.27415,2.8125 1.930331,2.8125 0.743007,0 1.350919,-0.84375 1.350919,-1.875 z m 46.875,-5.91766 c 0,-1.247553 -3.98804,-8.14484 -4.70938,-8.14484 -1.45855,0 -1.0757,1.654161 1.19375,5.157793 1.75356,2.70717 3.51563,4.204314 3.51563,2.987047 z m 38.14625,-4.160465 c -0.23581,-0.902344 -0.42875,-0.164063 -0.42875,1.640625 0,1.804687 0.19294,2.542969 0.42875,1.640625 0.2358,-0.902344 0.2358,-2.378906 0,-3.28125 z m -55.85328,0.433594 c -0.57364,-0.573633 -1.04297,-1.777446 -1.04297,-2.675141 0,-0.897694 -0.44994,-1.910251 -0.99987,-2.250127 -1.94521,-1.202201 -1.87453,0.330789 0.1986,4.308191 1.15419,2.214356 2.27598,3.493739 2.49287,2.843074 0.21689,-0.650665 -0.075,-1.652364 -0.64863,-2.225997 z m 5.45359,-2.197441 c -0.65362,-1.221291 -1.53898,-2.220528 -1.96748,-2.220528 -1.30779,0 -0.87094,2.738276 0.85776,5.376601 1.40909,2.150546 1.68284,2.259254 1.96747,0.781293 0.18185,-0.944262 -0.20414,-2.716077 -0.85775,-3.937366 z m -47.062966,0.02557 c -0.311524,-0.311522 -1.120117,-0.344829 -1.796875,-0.07402 -0.747875,0.299274 -0.525728,0.521421 0.566406,0.566406 0.988281,0.04071 1.541992,-0.18087 1.230469,-0.492393 z M 119.0625,83.147934 c 0,-1.819141 -2.54922,-4.97371 -3.36226,-4.160672 -0.80122,0.80121 1.39782,5.387738 2.58318,5.387738 0.42849,0 0.77908,-0.55218 0.77908,-1.227066 z m 37.83903,-5.804184 c 0.29679,-0.773438 1.17083,-1.40625 1.94231,-1.40625 2.16007,0 3.38862,-3.013059 2.00184,-4.909581 -1.05319,-1.440338 -1.42234,-1.218037 -3.66467,2.206835 -1.37144,2.094683 -2.49351,4.192529 -2.49351,4.66188 0,1.382243 1.6274,0.975851 2.21403,-0.552884 z m -5.58871,-2.628248 c 1.46266,-1.069527 1.539,-1.712888 0.61179,-5.15625 -0.77301,-2.870762 -1.5415,-3.934252 -2.84292,-3.934252 -0.98094,0 -2.04427,0.421875 -2.36294,0.9375 -0.911,1.474029 -4.21875,1.094609 -4.21875,-0.483918 0,-0.781779 1.48445,-2.129301 3.29878,-2.994494 2.83325,-1.351081 3.76927,-1.402946 6.63268,-0.36752 4.44363,1.606835 4.94554,0.829828 0.8787,-1.360309 -3.86241,-2.080049 -4.82667,-3.99153 -2.95682,-5.861388 1.09561,-1.09561 1.94896,-1.154333 4.3931,-0.302304 1.66835,0.581588 3.60322,1.057433 4.2997,1.057433 1.97661,0 1.49725,-3.857991 -1.16508,-9.376729 -4.52818,-9.386446 -3.97169,-14.060771 1.67394,-14.060771 2.329,0 2.71586,-0.33127 2.46333,-2.109375 -0.27222,-1.916767 -0.7704,-2.096067 -5.45583,-1.963634 -6.0863,0.172028 -20.09857,1.777148 -23.4375,2.684789 -3.7556,1.020906 -8.09502,3.127195 -9.20962,4.470206 -0.56674,0.682874 -1.46503,5.828327 -1.9962,11.434341 l -0.96577,10.192752 4.91392,4.51828 c 2.70266,2.485055 6.0552,5.231878 7.45008,6.104054 1.39489,0.872175 2.66052,2.455187 2.8125,3.517805 0.49768,3.479572 11.55822,5.704212 15.18291,3.053784 z M 137.8125,45 c -0.57658,-1.077352 -1.96296,-1.875 -3.25891,-1.875 -1.24049,0 -2.51616,-0.421875 -2.83484,-0.9375 -0.31868,-0.515625 -1.82014,-0.9375 -3.33658,-0.9375 -4.32124,0 -3.60499,-2.939748 1.2272,-5.036849 3.88189,-1.684686 12.62095,-3.343842 17.8125,-3.381801 3.10476,-0.0227 3.22202,1.099683 0.70852,6.781876 C 145.28054,46.055779 139.88508,48.872647 137.8125,45 Z m -19.21875,29.0625 c -0.31868,-0.515625 -1.00128,-0.9375 -1.5169,-0.9375 -0.51563,0 -0.67678,0.421875 -0.3581,0.9375 0.31868,0.515625 1.00128,0.9375 1.5169,0.9375 0.51563,0 0.67678,-0.421875 0.3581,-0.9375 z M 120,69.430328 c 0,-1.26597 -1.70901,-2.143576 -2.82779,-1.452127 -0.52404,0.323872 -0.71008,0.981582 -0.41342,1.461578 C 117.46254,70.578482 120,70.571083 120,69.430328 Z M 113.4375,57.1875 c 0,-0.515625 -0.39697,-0.9375 -0.88217,-0.9375 -0.48519,0 -1.1429,0.421875 -1.46158,0.9375 -0.31868,0.515625 0.0783,0.9375 0.88217,0.9375 0.80387,0 1.46158,-0.421875 1.46158,-0.9375 z m 50.625,-10.78125 c 0,-1.458334 -0.53125,-2.34375 -1.40625,-2.34375 -1.51309,0 -1.73741,0.858648 -0.8372,3.204575 0.87582,2.282334 2.24345,1.757565 2.24345,-0.860825 z m -48.66184,-3.044393 c 0.5386,-1.416604 0.79124,-3.55923 0.56143,-4.761391 -0.25058,-1.310819 0.0987,-2.383954 0.87254,-2.680908 1.9489,-0.747864 1.54651,-2.169558 -0.61405,-2.169558 -2.19428,0 -2.44422,0.580457 -3.12847,7.265625 -0.5482,5.3559 0.687,6.611251 2.30855,2.346232 z m 5.32199,-14.475138 c -0.57944,-1.738334 -2.59765,-2.02665 -2.59765,-0.371094 0,0.816406 0.66797,1.484375 1.48437,1.484375 0.81641,0 1.31739,-0.500977 1.11328,-1.113281 z m 5.82546,0.410156 c -0.007,-0.386719 -0.85167,-4.026079 -1.875,-8.087466 -1.02334,-4.061387 -1.86061,-7.626231 -1.86061,-7.921875 0,-0.295644 -0.46741,-0.07013 -1.03869,0.501156 -0.74463,0.744634 -0.7589,1.925704 -0.0504,4.171875 0.54356,1.723252 1.26981,5.137091 1.61389,7.58631 0.40325,2.870436 1.08756,4.453125 1.9254,4.453125 0.71489,0 1.29332,-0.316406 1.28541,-0.703125 z M 115.3125,27.65625 c 0,-0.773438 -0.42187,-1.40625 -0.9375,-1.40625 -0.51562,0 -0.9375,0.632812 -0.9375,1.40625 0,0.773437 0.42188,1.40625 0.9375,1.40625 0.51563,0 0.9375,-0.632813 0.9375,-1.40625 z m 15.66109,-4.921875 c -0.56726,-2.707031 -1.36992,-4.921875 -1.78373,-4.921875 -1.11919,0 -0.91021,7.328329 0.27199,9.537282 1.73009,3.232701 2.59986,0.577278 1.51174,-4.615407 z m -21.3875,3.012427 c -0.81505,-0.815046 -2.12367,-1.178616 -3.0134,-0.837197 -2.59202,0.994652 -1.78041,2.277895 1.44071,2.277895 2.71059,0 2.86862,-0.144768 1.57269,-1.440698 z m 26.35141,-0.826377 c 0,-1.24689 -0.25607,-2.93439 -0.56905,-3.75 -1.04723,-2.729019 -1.82799,-1.522136 -1.46663,2.267075 0.38455,4.032353 2.03568,5.235148 2.03568,1.482925 z m 5.01739,-2.18605 c -0.66679,-4.786592 -1.19127,-6.247996 -1.96474,-5.474523 -0.6766,0.6766 -0.38837,7.047914 0.3749,8.287023 1.15417,1.873727 2.02743,0.328882 1.58984,-2.8125 z m 6.64065,2.676361 c 0.28528,-0.461596 -0.1117,-1.081167 -0.88217,-1.376827 -1.0092,-0.387264 -1.40087,-1.987442 -1.40087,-5.723236 0,-2.85212 -0.42188,-5.185673 -0.9375,-5.185673 -1.03417,0 -1.32144,11.491061 -0.3125,12.5 0.89435,0.89435 2.92394,0.771263 3.53304,-0.214264 z m 3.70904,-1.621674 C 149.39937,8.4172661 148.5996,3.75 147.87077,3.75 c -0.51686,0 -0.61725,1.4702728 -0.24005,3.515625 0.3566,1.9335938 0.85751,6.809351 1.11314,10.835017 0.32052,5.047446 0.80586,7.193576 1.56359,6.914062 0.60434,-0.222931 1.05305,-0.77447 0.99713,-1.225642 z M 100.51853,18.791276 C 100.28817,17.2217 99.7257,15.9375 99.268594,15.9375 c -0.947297,0 -1.143178,5.00042 -0.231582,5.912013 1.189148,1.189144 1.891968,-0.261667 1.481518,-3.058237 z m 18.03518,-0.913997 c 0.29666,-0.479996 0.11062,-1.137706 -0.41342,-1.461578 -0.52403,-0.323872 -0.95279,0.06885 -0.95279,0.872721 0,1.646743 0.56256,1.889211 1.36621,0.588857 z m -10.58329,-4.031857 c -0.69569,-0.695689 -0.81769,-0.329659 -0.40991,1.229727 0.33151,1.267691 0.75647,1.692653 0.99052,0.990517 0.22545,-0.676351 -0.0358,-1.675461 -0.58061,-2.220244 z m 5.17,0.0413 c -0.29927,-0.747875 -0.52142,-0.525728 -0.5664,0.566406 -0.0407,0.988281 0.18086,1.541992 0.49239,1.230469 0.31152,-0.311524 0.34482,-1.120117 0.074,-1.796875 z M 165.9375,11.71875 c 0,-1.8046875 -0.42188,-3.28125 -0.9375,-3.28125 -0.51563,0 -0.9375,1.4765625 -0.9375,3.28125 0,1.804688 0.42187,3.28125 0.9375,3.28125 0.51562,0 0.9375,-1.476562 0.9375,-3.28125 z m 4.39968,-2.0915325 c -0.2377,-0.9121571 -0.44781,-0.3928425 -0.46691,1.1540325 -0.0191,1.546875 0.17536,2.293185 0.43217,1.658467 0.2568,-0.634718 0.27243,-1.900343 0.0348,-2.8124995 z"
     id="path3366"
     inkscapeConnector-curvature="0" />
</svg>
